<?xml version="1.0" encoding="utf-8"?>
<!-- Generator: Adobe Illustrator 15.0.0, SVG Export Plug-In . SVG Version: 6.00 Build 0)  -->
<!DOCTYPE svg PUBLIC "-//W3C//DTD SVG 1.1//EN" "http://www.w3.org/Graphics/SVG/1.1/DTD/svg11.dtd">
<svg version="1.1" id="Layer_1" xmlns="http://www.w3.org/2000/svg" xmlns:xlink="http://www.w3.org/1999/xlink" x="0px" y="0px"
	 width="380px" height="266.153px" viewBox="0 0 380 266.153" enable-background="new 0 0 380 266.153" xml:space="preserve">
<path fill="#FFFFFF" d="M188.573,2.76c-28.097,2.698-37.511,25.006-37.511,25.006v49.94l6.249,6.252c0,0,1.621,37.433,0,37.509
	c-52.949,24.164-62.443,37.438-62.443,37.438v69.643h93.706h93.705v-69.643c0,0-9.496-13.273-62.518-37.438
	c-1.553-0.076,0-37.509,0-37.509l6.249-6.252v-49.94C226.01,27.766,218.365,7.233,188.573,2.76z"/>
<path fill="#FFFFFF" d="M285.369,2.76c-23.396,2.234-31.191,20.838-31.191,20.838v41.68l5.172,5.174c0,0,1.312,31.176,0,31.26
	c-6.783,3.082-12.731,15.214-17.985,17.92l64.612,39.274h57.498v-26.011c0,0-7.869-11.111-52.102-31.185
	c-1.311-0.084,0-31.26,0-31.26l5.248-5.174v-41.68C316.621,23.598,310.214,6.539,285.369,2.76z"/>
<path fill="#FFFFFF" d="M94.638,2.76c23.386,2.234,31.184,20.838,31.184,20.838v41.68l-5.174,5.174c0,0-1.312,31.176,0,31.26
	c6.795,3.082,12.738,14.207,17.91,16.914l-64.53,40.28H16.525v-26.011c0,0,7.873-11.111,52.1-31.185c1.312-0.084,0-31.26,0-31.26
	l-5.25-5.174v-41.68C63.375,23.598,69.782,6.539,94.638,2.76z"/>
</svg>
