<?xml version="1.0" encoding="utf-8"?>
<!-- Generator: Adobe Illustrator 15.0.0, SVG Export Plug-In . SVG Version: 6.00 Build 0)  -->
<!DOCTYPE svg PUBLIC "-//W3C//DTD SVG 1.1//EN" "http://www.w3.org/Graphics/SVG/1.1/DTD/svg11.dtd">
<svg version="1.1" id="Layer_1" xmlns="http://www.w3.org/2000/svg" xmlns:xlink="http://www.w3.org/1999/xlink" x="0px" y="0px"
	 width="373.51px" height="308px" viewBox="0 0 373.51 308" enable-background="new 0 0 373.51 308" xml:space="preserve">
<path fill="#FFFFFF" d="M205.612,143.848c0,2.901-1.451,13.053-4.354,18.854c-1.451,4.354-7.252,8.703-7.252,11.604
	c0,4.353,30.459,56.563,47.863,84.122c5.802,8.702,18.854,17.404,29.007,17.404c23.206,0,43.513-21.756,43.513-42.061
	c0-7.252-10.152-27.56-14.505-31.908c-5.802,5.801-13.054,14.504-20.305,21.756v-33.358c-2.9-15.955-5.803-33.358-8.703-52.214
	c29.008,8.702,66.718,73.968,66.718,100.075c0,37.71-29.007,66.718-63.815,66.718c-58.016,0-72.52-69.618-104.429-116.029
	c-10.15,0-23.205,0-33.357-7.253c5.803-2.899,11.604-10.151,20.306-13.054c2.901-1.45,10.153,0,15.954-2.898
	c8.702-5.803,13.054-13.055,13.054-21.757c0-14.504-11.603-24.656-24.654-24.656c-24.658,0-17.405,27.557-43.515,31.908
	c-1.449-39.16,18.855-50.763,44.962-50.763C188.206,100.337,205.612,120.642,205.612,143.848z M162.099,3.162v15.954
	C143.245,93.085,46.07,65.529,46.07,127.895c0,27.556,26.104,39.159,46.411,39.159c11.604,0,31.907-2.899,44.962-13.054
	c1.448,1.451,2.899,4.352,5.801,7.253c-15.954,13.053-34.811,17.405-50.766,17.405c-29.007,0-56.563-17.405-56.563-50.764
	c0-17.405,4.352-37.71,33.359-50.764c14.503-7.252,33.357-11.603,50.763-21.755c21.756-11.604,33.359-34.81,30.458-52.214
	L162.099,3.162L162.099,3.162z"/>
</svg>
