<?xml version="1.0" encoding="utf-8"?>
<!-- Generator: Adobe Illustrator 15.0.0, SVG Export Plug-In . SVG Version: 6.00 Build 0)  -->
<!DOCTYPE svg PUBLIC "-//W3C//DTD SVG 1.1//EN" "http://www.w3.org/Graphics/SVG/1.1/DTD/svg11.dtd">
<svg version="1.1" id="Layer_1" xmlns="http://www.w3.org/2000/svg" xmlns:xlink="http://www.w3.org/1999/xlink" x="0px" y="0px"
	 width="373.514px" height="308px" viewBox="0 0 373.514 308" enable-background="new 0 0 373.514 308" xml:space="preserve">
<path fill-rule="evenodd" clip-rule="evenodd" fill="#FFFFFF" d="M314.447,1.5c1.521,0.5,4.551-0.5,4.551,2.52l-0.51,18.42
	c0.25,1.51-0.5,3.78,0.76,5.04c1.51,1.27,3.529,1.77,5.3,2.78c1,0.5,2.01,1.51,3.271,2.02c4.039,2.27,8.83,4.54,13.369,7.06
	c0.26,0,0.76,0.51,0.76,1.01c0,0.76-1.26,2.02-1.26,3.28c-1.01,6.31-1.51,7.06-1.51,12.61c0,6.81-1.27,5.55,4.29,14.89
	c1,1.76,6.3,3.78,6.3,5.8c0,0.5-3.02,6.05-4.289,9.08c-4.791,11.1-8.07,21.7-8.83,33.05c0,0.76,0,1.51-0.5,2.27
	c-2.021-0.76-1.011-2.77-1.511-4.04c-0.76-3.28-2.021-6.56-3.03-9.33c-6.31-19.93-18.92-41.37-37.09-60.55
	c-1.01-1.26-2.52-2.01-3.529-3.28c-7.561-7.06-16.4-13.87-24.471-18.92c-3.529-2.01-6.81-4.29-10.09-6.05
	c-0.76-0.51-1.77-0.51-2.27-1.01c-2.521-1.26-5.301-2.52-8.07-4.04c-0.25,0-0.51-0.25-0.51-1.01c0-0.5,0-0.5,0.26-0.75
	c2.01-0.25,4.279-1.26,6.55-2.02c2.021-0.5,4.29-1.51,6.31-2.02c3.281-1.01,7.061-2.02,10.601-2.77c4.79-1.01,10.09-2.02,15.13-2.78
	c3.79-0.5,8.33-0.76,12.62-1.26H314.447z M143.657,9.83c3.03,0.25,5.81,0.25,12.11,0.75c3.53,0,7.32,0.76,11.1,1.01
	c20.19,2.27,39.611,6.56,60.3,13.88c8.32,3.02,18.16,7.82,26.74,12.61c3.279,2.02,6.56,4.54,10.09,6.81
	c27.24,18.42,44.9,49.45,52.22,73.92c0.511,2.02,1.261,3.78,2.021,6.05c0.5,1.01,4.539,19.68,4.539,23.97v15.891
	c-0.76,2.02-0.5,4.539-1.01,6.819c-0.25,1.51-1.01,3.021-1.76,4.79c-0.26,0.5,0,1.76-0.26,2.52c-0.5,2.771-2.27,5.551-3.53,8.83
	c-1.26,2.271-2.771,5.801-4.54,8.83c-1.77,3.03-6.561,8.32-6.561,9.08c0,0.51,0.761,1.77,1.011,2.78
	c2.771,9.58,3.28,10.34,3.28,18.67c0,19.42-13.121,30.271-31.28,30.271c-1.771,0-20.94-1.011-20.94-5.301c0-0.51,0.5-1.51,1.51-2.02
	c3.531-2.02,9.59-7.57,12.36-11.1c1.771-2.271,3.28-6.311,4.54-8.58v-0.75c-0.25-0.261-0.25-0.511-1.01-0.511
	c-0.5,0-3.27,2.271-5.04,2.78c-0.25,0.25-0.761,0.75-1.011,0.75c-0.5,0.25-1.26,0.51-2.02,0.51c-0.25,0.25-0.5,0.75-0.76,0.75
	c-3.779,1.77-8.07,3.28-11.6,4.801c-0.76,0.25-1.26,0.75-2.021,1.01c-5.04,1.76-10.09,3.779-15.13,5.3
	c-3.029,1-6.311,2.01-9.34,2.771c-5.301,1.51-10.85,3.029-16.4,4.039c-1.01,0.25-2.52,0.25-3.279,0.5
	c-3.53,0.76-6.811,1.77-10.09,2.27c-4.031,0.761-8.57,1.261-12.361,2.021c-6.56,1.011-13.37,2.271-20.18,3.03
	c-1.51,0.25-3.53,0.25-5.05,0.75c-1.76,0.51-1.26,2.02-1.51,3.029c-0.25,1.011-0.76,2.021-1.26,3.031
	c-3.78,8.83-13.37,18.67-21.95,23.959c-2.52,1.521-5.04,3.03-7.06,4.041c-2.53,1.01-4.8,2.52-7.32,3.529
	c-2.77,1.01-5.55,2.27-8.32,3.03c-6.56,1.76-14.13,3.78-20.94,4.54c-1.01,0-3.03,1.01-3.79,1.01h-1.51c0-0.25-0.25-0.25-0.25-0.76
	c0-0.75,1.01-2.52,1.51-3.78c4.54-11.86,10.6-24.979,13.88-36.58c0-0.25,2.77-9.08,2.77-11.351c0-3.789-3.53-12.619-4.29-13.879
	c0-0.25-0.76-0.76-1.01-1.26c-8.07-15.641-26.99-26.24-40.11-31.031c-3.03-1.01-6.05-2.52-9.08-3.279c-0.76-0.25-1.77-0.25-2.77-0.5
	c-0.26,0-0.76-0.26-1.01-0.51c0.5-1.51,2.77-1.51,4.03-2.021c0.76-0.25,1.26-0.76,2.27-1.01c3.28-1.011,6.81-2.021,10.6-2.521
	c3.28-0.76,7.31-1.01,11.1-1.51l8.83-0.26c4.04-0.25,7.82,0,12.11,1.01c2.27,0.51,5.3,1.01,8.07,1.77
	c1.26,0.25,2.78,0.761,4.29,1.511c4.04,1.771,7.82,4.29,12.11,6.31c3.28,1.771,5.8,2.78,9.84,4.291c4.54,1.77,9.33,2.52,14.38,3.029
	c4.79,0.25,6.05,0.25,6.81,0.25c4.79,0,9.59-0.51,14.38-2.02c10.34-3.03,26.23-11.86,31.03-24.221c0-0.5,0.761-1.26,0.761-1.51
	c0.25-0.76,0.5-2.02,0.75-2.779c0.25-1.261,1.01-2.771,1.52-4.281v-5.56c-0.26-7.819-5.301-14.88-8.58-22.7
	c-2.78-3.28-6.06-6.81-9.33-10.09c-2.28-2.02-4.55-3.79-6.57-5.3c-12.36-8.07-25.98-12.61-38.09-11.86c-0.25-0.25-0.5-0.25-0.5-0.75
	c0-0.76,1.01-1.27,1.26-1.77c4.54-7.57,7.82-14.88,9.58-21.69c0.51-1.77,1.01-3.54,1.27-5.3c0.5-4.04,1.26-8.07,1.51-12.11
	c0-6.31-0.25-7.32-0.25-8.58c-0.25,0-0.25-0.25-0.51-0.5c-0.5,1.01-1.01,2.27-1.01,3.53c-1.26,16.15-9.83,36.83-29.26,49.44
	c-2.02,1.27-13.37,2.53-17.66,2.53c-7.31,0-17.66-2.02-22.7-4.04c-2.78-1.01-5.3-2.27-7.57-3.53c-4.54-2.27-10.6-6.06-14.38-10.34
	c-3.03-3.28-5.05-7.07-7.82-10.35c-1.01-1.26-3.53-2.52-4.54-3.02c-1.77-0.51-3.28-1.52-4.8-2.02c-1.76-0.51-4.03-0.76-5.8-1.01
	c-1.51-0.25-3.03-0.76-4.29-1.26c-3.28-1.01-6.3-6.06-6.3-8.33v-0.76c-0.51-1.26,1.51-3.53,3.28-3.78c2.77-0.76,6.3-1.01,9.58-1.77
	c2.52-0.5,5.3-1.76,7.82-2.77c1.01-0.5,2.27-1.51,3.28-2.02c9.08-5.8,14.13-16.9,14.13-24.47c0-8.33-8.07-18.42-10.85-23.21
	c-0.5-1.01-0.25-2.27-0.25-3.03v-0.75v-0.76c0-1.01,0.76-1.77,1.51-2.52c3.53-4.29,7.57-2.78,11.86-4.04
	c1.26-0.5,3.28-0.25,4.79-0.5c10.35-1.77,20.44-2.52,31.03-3.79l10.6-0.25c2.52-0.25,5.3-0.5,8.07-0.76h25.98V9.83z M126.257,40.35
	c0,0.5-1.26,3.78-1.26,4.29c-0.26,1.26-2.02,4.29-3.79,5.3c-1.76,1.01-5.55,2.77-7.31,2.77c-0.76,0-4.04-0.5-5.55-1.51
	c-6.31-3.53-7.07-7.57-7.07-11.61c0-7.56,6.31-12.11,12.62-12.11C121.467,27.48,126.257,34.55,126.257,40.35z"/>
</svg>
