<?xml version="1.0" encoding="iso-8859-1"?>
<!-- Generator: Adobe Illustrator 19.0.0, SVG Export Plug-In . SVG Version: 6.00 Build 0)  -->
<svg xmlns="http://www.w3.org/2000/svg" xmlns:xlink="http://www.w3.org/1999/xlink" version="1.1" id="Capa_1" x="0px" y="0px" viewBox="0 0 60 60" style="enable-background:new 0 0 60 60;" xml:space="preserve" width="512px" height="512px">
<g>
	<polygon points="22.5,28.693 16.5,26.443 16.5,28.307 22.5,30.557  " fill="#FFFFFF"/>
	<polygon points="22.5,24.693 16.5,22.443 16.5,24.307 22.5,26.557  " fill="#FFFFFF"/>
	<path d="M16.426,20.279l6.074,2.278V22c0-5.418-1.556-9.986-4-12.61V0h-2v7.806C15.568,7.291,14.563,7,13.5,7h-1v6h1   C14.169,13,16.042,15.569,16.426,20.279z" fill="#FFFFFF"/>
	<polygon points="16.5,32.307 22.5,34.557 22.5,32.693 16.5,30.443  " fill="#FFFFFF"/>
	<path d="M34.007,44H42.5c0,5.514-4.486,10-10,10s-10-4.486-10-10v-7.307l-6-2.25V36c0,2.206-1.794,4-4,4c-0.553,0-1,0.448-1,1   s0.447,1,1,1c1.538,0,2.937-0.586,4-1.54V44c0,8.822,7.178,16,16,16s16-7.178,16-16v-9.038L34.007,44z" fill="#FFFFFF"/>
</g>
<g>
</g>
<g>
</g>
<g>
</g>
<g>
</g>
<g>
</g>
<g>
</g>
<g>
</g>
<g>
</g>
<g>
</g>
<g>
</g>
<g>
</g>
<g>
</g>
<g>
</g>
<g>
</g>
<g>
</g>
</svg>
