<?xml version="1.0" encoding="utf-8"?>
<!-- Generator: Adobe Illustrator 15.0.0, SVG Export Plug-In . SVG Version: 6.00 Build 0)  -->
<!DOCTYPE svg PUBLIC "-//W3C//DTD SVG 1.1//EN" "http://www.w3.org/Graphics/SVG/1.1/DTD/svg11.dtd">
<svg version="1.1" id="Capa_1" xmlns="http://www.w3.org/2000/svg" xmlns:xlink="http://www.w3.org/1999/xlink" x="0px" y="0px"
	 width="420px" height="308px" viewBox="0 0 420 308" enable-background="new 0 0 420 308" xml:space="preserve">
<g>
	<g>
		<path fill="#009688" d="M289.654,148.689c-2.932,0-5.311,2.374-5.311,5.311v31.861c0,40.996-33.349,74.346-74.345,74.346
			s-74.345-33.35-74.345-74.346V154c0-2.937-2.379-5.311-5.311-5.311c-2.931,0-5.31,2.374-5.31,5.311v31.861
			c0,45.059,35.282,81.934,79.655,84.695v26.821h-26.552c-2.931,0-5.31,2.374-5.31,5.312c0,2.937,2.379,5.311,5.31,5.311h63.726
			c2.931,0,5.31-2.374,5.31-5.311c0-2.938-2.379-5.312-5.31-5.312h-26.553v-26.821c44.373-2.763,79.654-39.643,79.654-84.695V154
			C294.965,151.063,292.586,148.689,289.654,148.689z"/>
		<path fill="#009688" d="M210,244.275c32.207,0,58.414-26.207,58.414-58.414V58.414C268.414,26.207,242.207,0,210,0
			s-58.414,26.207-58.414,58.414v127.449C151.586,218.068,177.793,244.275,210,244.275z"/>
	</g>
</g>
</svg>
