<?xml version="1.0" encoding="utf-8"?>
<!-- Generator: Adobe Illustrator 15.0.0, SVG Export Plug-In . SVG Version: 6.00 Build 0)  -->
<!DOCTYPE svg PUBLIC "-//W3C//DTD SVG 1.1//EN" "http://www.w3.org/Graphics/SVG/1.1/DTD/svg11.dtd">
<svg version="1.1" id="Layer_1" xmlns="http://www.w3.org/2000/svg" xmlns:xlink="http://www.w3.org/1999/xlink" x="0px" y="0px"
	 width="220px" height="220px" viewBox="0 0 220 220" enable-background="new 0 0 220 220" xml:space="preserve">
<g display="none">
	<path display="inline" fill="#43697C" d="M73.744,76.769c-50.881,21.336-60.999,68.956-60.999,68.956
		c-6.909,26.4,3.979,46.411,3.979,46.411c12.054,18.472,33.151,21.218,33.151,21.218c52.923,7.239,87.52,3.979,87.52,3.979
		c49.037-2.282,58.106-16.708,59.672-18.564c16.377-18.5,11.936-47.738,11.936-47.738c-8.885-40.71-37.13-58.346-37.13-58.346
		c-24.308-18.259-34.478-18.565-34.478-18.565C108.712,91.077,73.744,76.769,73.744,76.769z"/>
	<path display="inline" fill="#43697C" d="M77.723,68.813c23.603,8.275,51.716-2.652,51.716-2.652
		c3.156-1.101,1.326-14.586,1.326-14.586c0.809-13.764,10.607-27.847,10.607-27.847c6.286-12.955-11.936-10.608-11.936-10.608
		c-7.121,3.792-9.281,7.956-9.281,7.956c-3.475,1.22-7.957-9.282-7.957-9.282c-3.965-13.313-13.26-9.282-13.26-9.282
		C90.571,6.158,88.33,17.098,88.33,17.098c-3.143,5.198-18.393-8.513-26.083-0.278c-5.789,7.454-3.09,13.539-3.09,13.539
		C71.622,69.913,77.723,68.813,77.723,68.813z"/>
</g>
<g>
	<g>
		<path fill="#009688" d="M196.094,44.102H23.76c-6.814,0-12.266,5.495-12.31,12.309l0,0v0.132v115.798v0.132l0,0
			c0.088,6.814,5.496,12.311,12.31,12.311h172.334c6.859,0,12.311-5.583,12.311-12.441l0,0V56.543l0,0
			C208.404,49.685,202.954,44.102,196.094,44.102z M31.277,58.17h157.256c3.033,0,5.32,2.242,5.759,5.276v8.792H25.519v-8.924
			C25.958,60.324,28.288,58.17,31.277,58.17z M188.578,170.716h-157.3c-3.033,0-5.319-2.153-5.759-5.144v-51.131h168.818v50.998
			C193.896,168.473,191.566,170.716,188.578,170.716z"/>
		<rect x="39.587" y="135.545" fill="#009688" width="84.409" height="7.034"/>
		<rect x="39.587" y="149.611" fill="#009688" width="42.205" height="7.035"/>
		<rect x="152.132" y="135.545" fill="#009688" width="28.138" height="21.104"/>
	</g>
</g>
</svg>
