<?xml version="1.0" encoding="utf-8"?>
<!-- Generator: Adobe Illustrator 15.0.0, SVG Export Plug-In . SVG Version: 6.00 Build 0)  -->
<!DOCTYPE svg PUBLIC "-//W3C//DTD SVG 1.1//EN" "http://www.w3.org/Graphics/SVG/1.1/DTD/svg11.dtd">
<svg version="1.1" id="Layer_1" xmlns="http://www.w3.org/2000/svg" xmlns:xlink="http://www.w3.org/1999/xlink" x="0px" y="0px"
	 width="373.514px" height="308px" viewBox="0 0 373.514 308" enable-background="new 0 0 373.514 308" xml:space="preserve">
<path display="none" fill="#CCCCCC" d="M130.998,41.851c0,0.504-1.264,3.784-1.264,4.289c-0.252,1.261-2.018,4.288-3.781,5.297
	c-1.769,1.009-5.553,2.775-7.316,2.775c-0.757,0-4.037-0.505-5.55-1.514c-6.31-3.532-7.064-7.568-7.064-11.604
	c0-7.568,6.31-12.109,12.614-12.109C126.205,28.984,130.998,36.048,130.998,41.851z M148.404,11.325
	c3.028,0.252,5.807,0.252,12.11,0.757c3.531,0,7.316,0.757,11.103,1.009c20.182,2.27,39.604,6.559,60.294,13.875
	c8.322,3.027,18.164,7.82,26.737,12.614c3.28,2.018,6.563,4.541,10.095,6.811c27.242,18.416,44.901,49.446,52.221,73.917
	c0.505,2.018,1.262,3.784,2.018,6.055c0.505,1.009,4.541,19.677,4.541,23.966v15.894c-0.756,2.021-0.504,4.541-1.009,6.813
	c-0.252,1.514-1.01,3.026-1.766,4.793c-0.252,0.505,0,1.767-0.252,2.522c-0.508,2.772-2.271,5.549-3.532,8.828
	c-1.261,2.271-2.775,5.803-4.541,8.828c-1.769,3.027-6.562,8.326-6.562,9.082c0,0.506,0.759,1.768,1.012,2.775
	c2.771,9.586,3.276,10.343,3.276,18.669c0,19.424-13.115,30.271-31.279,30.271c-1.769,0-20.938-1.011-20.938-5.299
	c0-0.505,0.505-1.514,1.514-2.02c3.531-2.019,9.588-7.566,12.361-11.101c1.769-2.271,3.28-6.308,4.541-8.577v-0.757
	c-0.252-0.254-0.252-0.506-1.01-0.506c-0.504,0-3.279,2.271-5.045,2.774c-0.252,0.253-0.757,0.758-1.012,0.758
	c-0.505,0.252-1.263,0.504-2.019,0.504c-0.252,0.252-0.505,0.757-0.757,0.757c-3.783,1.769-8.072,3.279-11.604,4.795
	c-0.757,0.252-1.262,0.757-2.018,1.009c-5.046,1.768-10.092,3.784-15.138,5.299c-3.027,1.01-6.309,2.019-9.333,2.772
	c-5.302,1.517-10.852,3.027-16.398,4.037c-1.009,0.252-2.521,0.252-3.279,0.505c-3.529,0.758-6.812,1.768-10.092,2.271
	c-4.035,0.759-8.577,1.263-12.361,2.02c-6.559,1.01-13.367,2.271-20.182,3.027c-1.514,0.252-3.531,0.252-5.045,0.757
	c-1.767,0.505-1.262,2.019-1.514,3.026c-0.253,1.01-0.761,2.019-1.265,3.026c-3.781,8.828-13.367,18.668-21.945,23.966
	c-2.523,1.516-5.046,3.026-7.064,4.036c-2.521,1.011-4.793,2.522-7.313,3.531c-2.775,1.01-5.553,2.271-8.325,3.027
	c-6.562,1.766-14.127,3.782-20.938,4.54c-1.009,0-3.024,1.01-3.785,1.01H91.39c0-0.252-0.252-0.252-0.252-0.757
	c0-0.757,1.009-2.522,1.514-3.784c4.541-11.855,10.599-24.977,13.875-36.58c0-0.252,2.775-9.082,2.775-11.354
	c0-3.783-3.532-12.612-4.289-13.875c0-0.252-0.757-0.756-1.009-1.262c-8.072-15.643-26.993-26.236-40.111-31.029
	c-3.026-1.01-6.055-2.521-9.082-3.278c-0.756-0.252-1.766-0.252-2.772-0.505c-0.252,0-0.759-0.252-1.012-0.506
	c0.505-1.514,2.775-1.514,4.036-2.021c0.757-0.251,1.262-0.756,2.271-1.008c3.276-1.011,6.811-2.021,10.596-2.522
	c3.279-0.756,7.315-1.008,11.1-1.515l8.83-0.251c4.037-0.254,7.821,0,12.109,1.01c2.271,0.504,5.298,1.01,8.073,1.766
	c1.262,0.254,2.772,0.759,4.289,1.516c4.034,1.768,7.817,4.289,12.106,6.309c3.28,1.768,5.803,2.773,9.838,4.288
	c4.542,1.767,9.334,2.521,14.381,3.026c4.795,0.251,6.057,0.251,6.813,0.251c4.793,0,9.587-0.504,14.38-2.019
	c10.343-3.026,26.236-11.855,31.03-24.219c0-0.505,0.757-1.263,0.757-1.516c0.251-0.756,0.504-2.02,0.756-2.773
	c0.252-1.263,1.01-2.773,1.515-4.287v-5.551c-0.253-7.82-5.298-14.886-8.574-22.706c-2.776-3.281-6.059-6.812-9.335-10.092
	c-2.271-2.018-4.541-3.784-6.563-5.297c-12.359-8.073-25.981-12.614-38.093-11.857c-0.252-0.252-0.504-0.252-0.504-0.757
	c0-0.757,1.009-1.262,1.261-1.766c4.541-7.568,7.821-14.884,9.586-21.695c0.505-1.766,1.01-3.532,1.262-5.298
	c0.507-4.037,1.265-8.073,1.517-12.109c0-6.307-0.252-7.316-0.252-8.578c-0.253,0-0.253-0.252-0.505-0.504
	c-0.507,1.009-1.012,2.27-1.012,3.532c-1.262,16.146-9.839,36.832-29.264,49.446c-2.019,1.261-13.371,2.523-17.66,2.523
	c-7.313,0-17.659-2.018-22.705-4.037c-2.772-1.009-5.298-2.271-7.565-3.532c-4.541-2.271-10.598-6.055-14.379-10.343
	c-3.027-3.28-5.047-7.064-7.82-10.343c-1.009-1.261-3.532-2.523-4.542-3.027c-1.767-0.504-3.279-1.514-4.793-2.019
	c-1.768-0.504-4.036-0.757-5.802-1.009c-1.517-0.252-3.027-0.757-4.289-1.262c-3.279-1.009-6.31-6.054-6.31-8.325v-0.757
	c-0.504-1.261,1.517-3.532,3.28-3.784c2.775-0.757,6.307-1.009,9.586-1.766c2.522-0.504,5.297-1.766,7.82-2.775
	c1.009-0.504,2.271-1.514,3.277-2.018c9.082-5.802,14.13-16.902,14.13-24.471c0-8.325-8.073-18.416-10.851-23.209
	c-0.504-1.009-0.252-2.271-0.252-3.027V23.93v-0.75c0-1.009,0.757-1.766,1.514-2.522c3.532-4.289,7.568-2.775,11.857-4.036
	c1.261-0.505,3.279-0.252,4.793-0.505c10.343-1.766,20.434-2.522,31.03-3.784l10.596-0.252c2.522-0.252,5.297-0.504,8.073-0.757
	L148.404,11.325L148.404,11.325z M319.195,3c1.517,0.504,4.541-0.504,4.541,2.522l-0.504,18.416
	c0.251,1.514-0.505,3.785,0.756,5.046c1.516,1.261,3.531,1.766,5.301,2.775c1.009,0.504,2.019,1.514,3.276,2.018
	c4.037,2.271,8.829,4.541,13.37,7.064c0.253,0,0.758,0.504,0.758,1.009c0,0.757-1.262,2.018-1.262,3.279
	c-1.01,6.307-1.515,7.063-1.515,12.614c0,6.811-1.264,5.55,4.289,14.884c1.01,1.766,6.308,3.784,6.308,5.802
	c0,0.504-3.027,6.055-4.289,9.082c-4.793,11.1-8.072,21.695-8.83,33.048c0,0.757,0,1.514-0.505,2.271
	c-2.018-0.757-1.008-2.775-1.513-4.037c-0.756-3.279-2.021-6.559-3.027-9.334c-6.307-19.929-18.921-41.373-37.084-60.545
	c-1.01-1.262-2.521-2.018-3.532-3.28c-7.565-7.064-16.396-13.875-24.471-18.92c-3.531-2.018-6.812-4.289-10.091-6.055
	c-0.757-0.504-1.769-0.504-2.271-1.009c-2.521-1.261-5.298-2.522-8.069-4.036c-0.253,0-0.506-0.252-0.506-1.009
	c0-0.504,0-0.504,0.253-0.756c2.019-0.252,4.286-1.262,6.559-2.019c2.019-0.504,4.289-1.514,6.308-2.018
	c3.28-1.009,7.063-2.019,10.599-2.775c4.793-1.009,10.091-2.018,15.136-2.775c3.781-0.505,8.322-0.758,12.61-1.262H319.195z"/>
<path display="none" fill="#CCCCCC" d="M246.725,114.942c12.048,9.268,52.823,38.923,52.823,41.703v95.453
	c0,6.487-11.119,19.461-19.46,19.461h-58.385v-70.432c-3.706-14.827-19.461-25.947-32.438-25.947c-2.78,0-5.56,0.926-8.34,0.926
	c-7.415,0-25.021,15.756-25.021,25.949l-0.929,69.504H96.596c-4.634-0.927-17.608-9.269-17.608-14.828V154.792
	c23.168-18.535,102.866-80.625,109.354-80.625C194.829,74.167,239.313,109.382,246.725,114.942z M194.829,25.05
	c19.462,12.975,39.849,29.656,59.31,44.483l0.928-21.315c1.854-6.487,12.976-5.56,18.533-5.56c1.854,0,18.535-1.854,18.535,5.56
	v49.117c12.047,9.267,25.022,18.534,36.142,29.655c1.854,0.926,1.854,4.633,1.854,7.413c0,9.267-8.341,14.828-14.828,14.828
	c-1.854,0-6.486-1.854-8.341-3.707c-7.414-4.634-14.827-10.194-21.314-15.755c-24.095-17.608-93.599-70.431-97.306-70.431
	c-5.563,0-88.039,64.871-117.695,86.186c-2.776,1.853-6.483,3.707-9.267,3.707c-9.27,0-13.901-7.414-13.901-14.828
	c0-2.78-0.926-5.56,0.927-7.413c6.487-8.341,14.828-13.901,22.241-18.535c17.608-12.975,37.07-27.802,55.604-41.703
	c16.681-12.974,35.215-27.802,54.677-40.776c1.853-1.854,5.56-0.927,7.414-0.927C191.122,25.05,192.975,24.124,194.829,25.05z"/>
<path display="none" fill="#CCCCCC" d="M194.454,146.008c0,2.901-1.451,13.053-4.354,18.854c-1.451,4.354-7.252,8.703-7.252,11.604
	c0,4.353,30.459,56.563,47.863,84.122c5.802,8.702,18.854,17.404,29.007,17.404c23.206,0,43.513-21.756,43.513-42.061
	c0-7.252-10.151-27.561-14.505-31.908c-5.802,5.801-13.054,14.504-20.305,21.756v-33.358c-2.9-15.955-5.803-33.358-8.703-52.214
	c29.008,8.702,66.718,73.968,66.718,100.075c0,37.71-29.007,66.718-63.814,66.718c-58.017,0-72.521-69.618-104.43-116.029
	c-10.149,0-23.205,0-33.356-7.253c5.803-2.899,11.604-10.151,20.306-13.054c2.901-1.45,10.153,0,15.954-2.898
	c8.702-5.803,13.054-13.055,13.054-21.757c0-14.504-11.603-24.656-24.653-24.656c-24.658,0-17.405,27.557-43.516,31.908
	c-1.449-39.16,18.855-50.763,44.962-50.763C177.048,102.497,194.454,122.802,194.454,146.008z M150.942,5.322v15.954
	C132.087,95.245,34.912,67.689,34.912,130.055c0,27.556,26.104,39.159,46.411,39.159c11.604,0,31.906-2.899,44.962-13.054
	c1.447,1.451,2.898,4.352,5.801,7.253c-15.954,13.053-34.812,17.405-50.767,17.405c-29.007,0-56.563-17.405-56.563-50.764
	c0-17.405,4.352-37.71,33.359-50.764c14.503-7.252,33.356-11.603,50.763-21.755c21.756-11.604,33.358-34.81,30.458-52.214
	L150.942,5.322L150.942,5.322z"/>
<path display="none" fill="#ED4062" d="M203.537,2.779v123.729c10.604,6.363,15.554,16.968,15.554,26.16
	c0,17.675-14.847,30.402-30.402,30.402c-16.969,0-29.692-14.848-29.692-30.402c0-9.191,4.239-19.797,15.554-26.16V95.399
	c0,0,0-0.707-1.414-0.707c-2.121,0-11.313,3.535-15.554,6.363c-22.625,14.141-28.988,33.937-28.988,51.613
	c0,35.352,28.281,60.805,60.097,60.805c26.867,0,52.32-16.263,60.807-53.027v-15.552c-2.828-9.191-4.949-19.796-13.437-28.988
	l23.332-18.383c14.143,16.969,19.797,38.179,19.797,55.148c0,52.318-41.715,90.5-90.5,90.5c-31.106,0-71.41-17.676-85.55-61.512
	c-2.121-6.363-4.242-19.092-4.242-20.506v-16.259c0.707-4.242,2.121-9.191,2.121-13.434c2.121-21.917,35.354-60.804,59.393-64.339
	c4.239-0.707,9.188-2.121,14.14-2.828V33.888c-0.707-0.707,0-0.707-2.121-0.707c-1.414,0-8.484,1.414-12.726,2.121
	c-25.453,4.242-66.461,33.23-79.188,63.632c-7.776,16.969-12.727,36.058-12.727,54.441c0,66.46,55.146,120.9,121.605,120.9
	s120.901-55.854,120.901-121.607c0-24.746-8.484-50.906-26.866-74.945l22.624-18.382c24.746,31.109,33.23,61.511,33.23,93.327
	c0,85.55-69.289,150.596-150.599,150.596c-53.024,0-115.952-28.988-142.816-102.519c-0.707-3.535-7.07-30.402-7.07-33.938v-27.574
	c1.414-6.363,2.121-13.433,2.828-19.089c0.707-4.949,3.535-9.898,4.242-14.848c7.067-28.281,44.542-74.945,76.355-87.671
	c3.535-1.414,7.777-3.535,11.313-4.949c5.653-2.828,13.434-4.949,19.797-6.363c7.068-1.414,15.554-2.121,23.332-3.535L203.537,2.779
	L203.537,2.779z"/>
<g>
	<g>
		<g>
			<path fill="#4DB6AC" d="M176.942,144.056c0,0,1.355,2.725,2.619,3.029c9.121,2.154,49.814,11.405,61.503,4.091
				c6.256-4.158-16.648-23.725-16.648-23.725s27.031,12.484,31.643,7.917c16.731-26.941-26.396-71.258-37.354-81.718
				c-2.755-3.098-4.78-0.771-4.78-0.771l-51.172,35.455L176.942,144.056z M224.221,93.741c4.476,0,8.137,3.637,8.137,8.117
				c0,4.488-3.661,8.124-8.137,8.124c-4.484,0-8.129-3.636-8.129-8.124C216.118,97.378,219.744,93.741,224.221,93.741z"/>
			<path fill="#4DB6AC" d="M163.821,141.687c5.611,0.313,4.002-5.913,4.002-5.913L154.92,84.604l54.74-35.824
				c0,0,3.644-2.411,0.187-4.59c-8.714-7.429-34.234-28.522-42.846-27.827c-10.401,0.835-7.91,28.297-15.401,26.627
				C73.373,46.725,45.615,181.689,49.241,186.122c3.646,4.424,6.612,7.544,13.308,2.509c6.832,14.833-8.968,48.448-14.231,62.197
				c-1.374,4.162,2.118,3.076,4.517,0.992c12.086-12.07,20.648-16.359,25.486-15.885c4.841,0.483,16.005,4.712,22.488,8.323
				c3.102,2.297,6.696,1.661,3.407-3.018C53.65,134.795,140.054,139.241,163.821,141.687z"/>
			<path fill="#4DB6AC" d="M191.673,166.355c0,0-1.339-2.713-2.618-3.034c-9.104-2.153-49.781-11.4-61.494-4.119
				c-6.239,4.153,16.638,23.699,16.638,23.699s-27.031-12.469-31.625-7.866c-16.749,26.937,26.395,71.25,37.356,81.71
				c2.752,3.067,4.778,0.779,4.778,0.779l51.172-35.465L191.673,166.355z M144.411,216.67c-4.477,0-8.12-3.627-8.12-8.119
				c0-4.519,3.643-8.146,8.12-8.146c4.484,0,8.113,3.645,8.113,8.146C152.524,213.043,148.895,216.67,144.411,216.67z"/>
			<path fill="#4DB6AC" d="M315.795,58.583c-12.093,12.07-20.647,16.358-25.503,15.888c-4.876-0.465-16.005-4.712-22.479-8.332
				c-3.094-2.28-6.688-1.648-3.433,3.03c50.525,106.459-35.863,102.01-59.621,99.559c-5.611-0.305-3.984,5.951-3.984,5.951
				l12.86,51.161l-54.706,35.854c0,0-3.654,2.39-0.178,4.559c8.714,7.411,34.236,28.532,42.839,27.837
				c10.357-0.882,7.864-28.345,15.374-26.598c78.234-3.781,106.002-138.703,102.356-143.157c-3.653-4.415-6.62-7.53-13.308-2.5
				c-6.831-14.833,8.968-48.457,14.274-62.197C321.678,55.438,318.194,56.549,315.795,58.583z"/>
		</g>
	</g>
</g>
</svg>
