<?xml version="1.0" encoding="utf-8"?>
<!-- Generator: Adobe Illustrator 15.0.0, SVG Export Plug-In . SVG Version: 6.00 Build 0)  -->
<!DOCTYPE svg PUBLIC "-//W3C//DTD SVG 1.1//EN" "http://www.w3.org/Graphics/SVG/1.1/DTD/svg11.dtd">
<svg version="1.1" id="Layer_1" xmlns="http://www.w3.org/2000/svg" xmlns:xlink="http://www.w3.org/1999/xlink" x="0px" y="0px"
	 width="380px" height="373px" viewBox="0 0 380 373" enable-background="new 0 0 380 373" xml:space="preserve">
<path fill="#FFFFFF" d="M192.4,108.362c-20.067,1.927-26.791,17.859-26.791,17.859v35.667l4.463,4.465c0,0,1.158,26.733,0,26.789
	c-37.815,17.258-44.595,26.737-44.595,26.737v49.738H192.4h66.923v-49.738c0,0-6.781-9.479-44.648-26.737
	c-1.108-0.056,0-26.789,0-26.789l4.462-4.465v-35.667C219.137,126.221,213.676,111.557,192.4,108.362z"/>
<path fill="#FFFFFF" d="M261.53,108.362c-16.709,1.596-22.277,14.882-22.277,14.882v29.767l3.694,3.696c0,0,0.937,22.265,0,22.325
	c-4.844,2.2-9.093,10.865-12.845,12.796l46.145,28.051h41.064v-18.577c0,0-5.619-7.936-37.211-22.271c-0.936-0.06,0-22.325,0-22.325
	l3.749-3.695v-29.767C283.851,123.244,279.274,111.061,261.53,108.362z"/>
<path fill="#FFFFFF" d="M125.313,108.362c16.702,1.596,22.271,14.882,22.271,14.882v29.767l-3.695,3.696c0,0-0.937,22.265,0,22.325
	c4.853,2.2,9.097,10.146,12.791,12.079l-46.086,28.769H69.525v-18.577c0,0,5.623-7.936,37.209-22.272c0.937-0.06,0-22.324,0-22.324
	l-3.75-3.696v-29.766C102.984,123.244,107.561,111.061,125.313,108.362z"/>
</svg>
