<?xml version="1.0" encoding="utf-8"?>
<!-- Generator: Adobe Illustrator 15.0.0, SVG Export Plug-In . SVG Version: 6.00 Build 0)  -->
<!DOCTYPE svg PUBLIC "-//W3C//DTD SVG 1.1//EN" "http://www.w3.org/Graphics/SVG/1.1/DTD/svg11.dtd">
<svg version="1.1" id="Layer_1" xmlns="http://www.w3.org/2000/svg" xmlns:xlink="http://www.w3.org/1999/xlink" x="0px" y="0px"
	 width="373.514px" height="308px" viewBox="0 0 373.514 308" enable-background="new 0 0 373.514 308" xml:space="preserve">
<path display="none" fill="#CCCCCC" d="M130.998,41.851c0,0.504-1.262,3.784-1.262,4.289c-0.252,1.261-2.018,4.288-3.783,5.297
	c-1.767,1.009-5.551,2.775-7.316,2.775c-0.757,0-4.037-0.505-5.55-1.514c-6.308-3.532-7.064-7.568-7.064-11.604
	c0-7.568,6.308-12.109,12.614-12.109C126.205,28.984,130.998,36.048,130.998,41.851z M148.404,11.325
	c3.028,0.252,5.805,0.252,12.11,0.757c3.531,0,7.316,0.757,11.101,1.009c20.182,2.27,39.606,6.559,60.294,13.875
	c8.324,3.027,18.164,7.82,26.739,12.614c3.28,2.018,6.561,4.541,10.093,6.811c27.244,18.416,44.903,49.446,52.221,73.917
	c0.505,2.018,1.262,3.784,2.018,6.055c0.505,1.009,4.541,19.677,4.541,23.966v15.894c-0.756,2.02-0.504,4.541-1.009,6.813
	c-0.252,1.514-1.01,3.027-1.766,4.793c-0.252,0.505,0,1.766-0.252,2.523c-0.506,2.773-2.271,5.549-3.532,8.828
	c-1.261,2.271-2.775,5.803-4.541,8.829c-1.767,3.027-6.56,8.326-6.56,9.082c0,0.505,0.757,1.767,1.01,2.775
	c2.773,9.586,3.278,10.343,3.278,18.669c0,19.424-13.117,30.271-31.281,30.271c-1.767,0-20.938-1.01-20.938-5.298
	c0-0.505,0.505-1.514,1.514-2.019c3.531-2.018,9.586-7.567,12.361-11.1c1.767-2.271,3.28-6.308,4.541-8.578v-0.756
	c-0.252-0.254-0.252-0.506-1.01-0.506c-0.504,0-3.279,2.271-5.045,2.774c-0.252,0.253-0.757,0.758-1.01,0.758
	c-0.505,0.252-1.263,0.504-2.019,0.504c-0.252,0.252-0.505,0.757-0.757,0.757c-3.783,1.768-8.072,3.279-11.604,4.795
	c-0.757,0.252-1.262,0.756-2.018,1.008c-5.046,1.767-10.092,3.785-15.138,5.299c-3.027,1.009-6.307,2.018-9.333,2.773
	c-5.3,1.516-10.85,3.027-16.398,4.037c-1.009,0.252-2.522,0.252-3.279,0.505c-3.531,0.757-6.812,1.767-10.092,2.271
	c-4.035,0.758-8.577,1.262-12.361,2.019c-6.559,1.009-13.369,2.271-20.182,3.027c-1.514,0.252-3.531,0.252-5.045,0.757
	c-1.767,0.505-1.262,2.018-1.514,3.027c-0.253,1.009-0.759,2.018-1.263,3.027c-3.783,8.828-13.369,18.668-21.947,23.965
	c-2.523,1.515-5.046,3.027-7.064,4.037c-2.522,1.01-4.793,2.522-7.315,3.531c-2.775,1.01-5.551,2.271-8.325,3.027
	c-6.56,1.766-14.127,3.783-20.938,4.54c-1.009,0-3.026,1.01-3.785,1.01h-1.514c0-0.252-0.252-0.252-0.252-0.757
	c0-0.757,1.009-2.522,1.514-3.784c4.541-11.856,10.597-24.976,13.875-36.58c0-0.252,2.775-9.082,2.775-11.353
	c0-3.783-3.532-12.613-4.289-13.875c0-0.252-0.757-0.756-1.009-1.262c-8.072-15.642-26.993-26.236-40.111-31.029
	c-3.027-1.01-6.055-2.522-9.082-3.279c-0.756-0.252-1.766-0.252-2.774-0.505c-0.252,0-0.757-0.252-1.01-0.505
	c0.504-1.514,2.775-1.514,4.036-2.02c0.757-0.251,1.261-0.756,2.271-1.008c3.278-1.01,6.811-2.02,10.596-2.523
	c3.279-0.756,7.315-1.008,11.1-1.514l8.83-0.251c4.037-0.254,7.821,0,12.109,1.009c2.271,0.504,5.298,1.01,8.073,1.766
	c1.262,0.254,2.774,0.758,4.289,1.515c4.035,1.767,7.819,4.289,12.108,6.308c3.28,1.767,5.802,2.774,9.838,4.289
	c4.542,1.766,9.334,2.521,14.38,3.026c4.794,0.251,6.056,0.251,6.813,0.251c4.793,0,9.587-0.504,14.38-2.018
	c10.343-3.027,26.236-11.856,31.03-24.219c0-0.504,0.757-1.262,0.757-1.515c0.251-0.756,0.504-2.019,0.756-2.774
	c0.252-1.262,1.01-2.774,1.514-4.287v-5.551c-0.252-7.82-5.297-14.885-8.575-22.705c-2.776-3.281-6.057-6.812-9.335-10.092
	c-2.271-2.018-4.541-3.784-6.561-5.297c-12.361-8.073-25.983-12.614-38.093-11.857c-0.252-0.252-0.504-0.252-0.504-0.757
	c0-0.757,1.009-1.262,1.261-1.766c4.541-7.568,7.821-14.884,9.586-21.695c0.505-1.766,1.01-3.532,1.262-5.298
	c0.505-4.037,1.263-8.073,1.515-12.109c0-6.307-0.252-7.316-0.252-8.578c-0.253,0-0.253-0.252-0.505-0.504
	c-0.506,1.009-1.01,2.27-1.01,3.532c-1.262,16.146-9.839,36.832-29.264,49.446c-2.019,1.261-13.371,2.523-17.66,2.523
	c-7.315,0-17.659-2.018-22.705-4.037c-2.774-1.009-5.298-2.271-7.567-3.532c-4.541-2.271-10.596-6.055-14.379-10.343
	c-3.027-3.28-5.046-7.064-7.82-10.343c-1.009-1.261-3.532-2.523-4.542-3.027c-1.767-0.504-3.279-1.514-4.793-2.019
	c-1.767-0.504-4.036-0.757-5.802-1.009c-1.515-0.252-3.027-0.757-4.289-1.262c-3.279-1.009-6.308-6.054-6.308-8.325v-0.757
	c-0.504-1.261,1.515-3.532,3.28-3.784c2.775-0.757,6.307-1.009,9.586-1.766c2.522-0.504,5.297-1.766,7.82-2.775
	c1.009-0.504,2.271-1.514,3.279-2.018c9.082-5.802,14.128-16.902,14.128-24.471c0-8.325-8.073-18.416-10.849-23.209
	c-0.504-1.009-0.252-2.271-0.252-3.027v-0.757V23.18c0-1.009,0.757-1.766,1.514-2.522c3.532-4.289,7.568-2.775,11.857-4.036
	c1.261-0.505,3.279-0.252,4.793-0.505c10.343-1.766,20.434-2.522,31.03-3.784l10.596-0.252c2.522-0.252,5.297-0.504,8.073-0.757
	L148.404,11.325L148.404,11.325z M319.195,3c1.515,0.504,4.541-0.504,4.541,2.522l-0.504,18.416
	c0.251,1.514-0.505,3.785,0.756,5.046c1.514,1.261,3.531,1.766,5.299,2.775c1.009,0.504,2.019,1.514,3.278,2.018
	c4.037,2.271,8.829,4.541,13.37,7.064c0.253,0,0.758,0.504,0.758,1.009c0,0.757-1.262,2.018-1.262,3.279
	c-1.01,6.307-1.515,7.063-1.515,12.614c0,6.811-1.262,5.55,4.289,14.884c1.01,1.766,6.308,3.784,6.308,5.802
	c0,0.504-3.027,6.055-4.289,9.082c-4.793,11.1-8.072,21.695-8.83,33.048c0,0.757,0,1.514-0.505,2.271
	c-2.018-0.757-1.008-2.775-1.513-4.037c-0.756-3.279-2.02-6.559-3.027-9.334c-6.307-19.929-18.921-41.373-37.084-60.545
	c-1.01-1.262-2.522-2.018-3.532-3.28c-7.567-7.064-16.397-13.875-24.471-18.92c-3.531-2.018-6.812-4.289-10.091-6.055
	c-0.757-0.504-1.767-0.504-2.271-1.009c-2.521-1.261-5.298-2.522-8.071-4.036c-0.253,0-0.506-0.252-0.506-1.009
	c0-0.504,0-0.504,0.253-0.756c2.019-0.252,4.288-1.262,6.559-2.019c2.019-0.504,4.289-1.514,6.308-2.018
	c3.28-1.009,7.063-2.019,10.597-2.775c4.793-1.009,10.091-2.018,15.136-2.775C292.959,3.757,297.5,3.504,301.788,3H319.195z"/>
<path display="none" fill="#CCCCCC" d="M246.725,114.942c12.048,9.268,52.823,38.923,52.823,41.703v95.453
	c0,6.487-11.119,19.461-19.46,19.461h-58.385v-70.432c-3.706-14.827-19.461-25.947-32.436-25.947c-2.78,0-5.56,0.926-8.34,0.926
	c-7.415,0-25.021,15.756-25.021,25.949l-0.927,69.504H96.596c-4.634-0.927-17.608-9.269-17.608-14.828V154.792
	c23.168-18.535,102.866-80.625,109.354-80.625C194.829,74.167,239.313,109.382,246.725,114.942z M194.829,25.05
	c19.462,12.975,39.849,29.656,59.31,44.483l0.928-21.315c1.854-6.487,12.974-5.56,18.533-5.56c1.854,0,18.535-1.854,18.535,5.56
	v49.117c12.047,9.267,25.022,18.534,36.142,29.655c1.854,0.926,1.854,4.633,1.854,7.413c0,9.267-8.341,14.828-14.828,14.828
	c-1.854,0-6.486-1.854-8.341-3.707c-7.414-4.634-14.827-10.194-21.314-15.755c-24.095-17.608-93.599-70.431-97.306-70.431
	c-5.562,0-88.039,64.871-117.695,86.186c-2.778,1.853-6.485,3.707-9.267,3.707c-9.268,0-13.901-7.414-13.901-14.828
	c0-2.78-0.926-5.56,0.927-7.413c6.487-8.341,14.828-13.901,22.241-18.535c17.608-12.975,37.07-27.802,55.604-41.703
	c16.681-12.974,35.215-27.802,54.677-40.776c1.853-1.854,5.56-0.927,7.414-0.927C191.122,25.05,192.975,24.124,194.829,25.05z"/>
<path display="none" fill="#CCCCCC" d="M194.454,146.008c0,2.901-1.451,13.053-4.353,18.854c-1.451,4.353-7.252,8.703-7.252,11.604
	c0,4.353,30.459,56.563,47.863,84.122c5.802,8.702,18.854,17.404,29.007,17.404c23.206,0,43.513-21.756,43.513-42.061
	c0-7.252-10.153-27.559-14.505-31.908c-5.802,5.801-13.054,14.504-20.305,21.756v-33.358c-2.9-15.955-5.803-33.358-8.703-52.214
	c29.008,8.702,66.718,73.968,66.718,100.075c0,37.71-29.007,66.718-63.816,66.718c-58.015,0-72.519-69.618-104.428-116.029
	c-10.151,0-23.205,0-33.358-7.253c5.803-2.899,11.604-10.151,20.306-13.054c2.901-1.45,10.153,0,15.954-2.898
	c8.702-5.803,13.054-13.055,13.054-21.757c0-14.504-11.603-24.656-24.655-24.656c-24.658,0-17.405,27.557-43.514,31.908
	c-1.449-39.16,18.855-50.763,44.962-50.763C177.048,102.497,194.454,122.802,194.454,146.008z M150.942,5.322v15.954
	C132.087,95.245,34.912,67.689,34.912,130.055c0,27.556,26.105,39.159,46.411,39.159c11.604,0,31.908-2.899,44.962-13.054
	c1.449,1.451,2.9,4.352,5.801,7.253c-15.954,13.053-34.81,17.405-50.765,17.405c-29.007,0-56.563-17.405-56.563-50.764
	c0-17.405,4.352-37.71,33.359-50.764c14.503-7.252,33.358-11.603,50.763-21.755c21.756-11.604,33.359-34.81,30.458-52.214
	L150.942,5.322L150.942,5.322z"/>
<path display="none" fill="#ED4062" d="M203.537,2.779v123.729c10.604,6.363,15.554,16.968,15.554,26.16
	c0,17.675-14.847,30.402-30.402,30.402c-16.969,0-29.694-14.848-29.694-30.402c0-9.191,4.241-19.797,15.554-26.16V95.399
	c0,0,0-0.707-1.414-0.707c-2.121,0-11.313,3.535-15.554,6.363c-22.625,14.141-28.988,33.937-28.988,51.613
	c0,35.352,28.281,60.805,60.097,60.805c26.867,0,52.32-16.263,60.805-53.027v-15.554c-2.828-9.191-4.949-19.796-13.435-28.988
	l23.332-18.383c14.141,16.969,19.797,38.179,19.797,55.148c0,52.32-41.715,90.5-90.5,90.5c-31.108,0-71.41-17.676-85.55-61.512
	c-2.121-6.363-4.242-19.09-4.242-20.504v-16.261c0.707-4.242,2.121-9.191,2.121-13.434c2.121-21.917,35.352-60.804,59.391-64.339
	c4.241-0.707,9.19-2.121,14.14-2.828V33.888c-0.707-0.707,0-0.707-2.121-0.707c-1.414,0-8.484,1.414-12.726,2.121
	c-25.453,4.242-66.461,33.23-79.188,63.632c-7.777,16.969-12.727,36.058-12.727,54.441c0,66.46,55.147,120.9,121.607,120.9
	s120.901-55.854,120.901-121.607c0-24.746-8.484-50.906-26.866-74.945l22.624-18.382c24.746,31.109,33.23,61.511,33.23,93.327
	c0,85.55-69.289,150.596-150.597,150.596c-53.026,0-115.952-28.988-142.818-102.519c-0.707-3.535-7.07-30.402-7.07-33.938v-27.574
	c1.414-6.363,2.121-13.433,2.828-19.089c0.707-4.949,3.535-9.898,4.242-14.848c7.069-28.281,44.542-74.945,76.357-87.671
	c3.535-1.414,7.777-3.535,11.313-4.949c5.655-2.828,13.434-4.949,19.797-6.363c7.07-1.414,15.554-2.121,23.332-3.535L203.537,2.779
	L203.537,2.779z"/>
<path fill-rule="evenodd" clip-rule="evenodd" fill="#4DB6AC" d="M291.657,118.35c0,9.39-2.211,20.44-4.971,30.93
	c-2.209,7.74-6.63,17.68-12.16,25.97c-25.959,38.109-54.129,76.779-81.75,115.45c-0.56,0.56-6.08,4.42-7.189,4.42
	c-7.18,0-18.78-20.99-19.88-22.091c-7.19-10.5-15.47-21.549-22.65-32.049c-17.68-25.961-39.78-54.69-54.14-80.101
	c-2.76-4.97-8.84-27.07-8.84-34.8v-15.47c6.63-64.63,57.45-98.33,105.51-98.33C245.807,12.28,291.657,60.89,291.657,118.35z
	 M220.947,117.79c0,20.44-16.569,35.36-35.359,35.36c-20.44,0-34.8-16.58-34.8-35.36c0-20.44,16.02-34.8,34.8-34.8
	C206.027,82.99,220.947,99.01,220.947,117.79z"/>
</svg>
