<?xml version="1.0" encoding="utf-8"?>
<!-- Generator: Adobe Illustrator 15.0.0, SVG Export Plug-In . SVG Version: 6.00 Build 0)  -->
<!DOCTYPE svg PUBLIC "-//W3C//DTD SVG 1.1//EN" "http://www.w3.org/Graphics/SVG/1.1/DTD/svg11.dtd">
<svg version="1.1" id="Layer_1" xmlns="http://www.w3.org/2000/svg" xmlns:xlink="http://www.w3.org/1999/xlink" x="0px" y="0px"
	 width="350px" height="350px" viewBox="0 0 350 350" enable-background="new 0 0 350 350" xml:space="preserve">
<path display="none" fill="#CCCCCC" d="M130.998,41.851c0,0.504-1.263,3.784-1.263,4.289c-0.252,1.261-2.018,4.288-3.782,5.297
	c-1.768,1.009-5.552,2.775-7.316,2.775c-0.757,0-4.037-0.505-5.55-1.514c-6.309-3.532-7.064-7.568-7.064-11.604
	c0-7.568,6.309-12.109,12.614-12.109C126.205,28.984,130.998,36.048,130.998,41.851z M148.404,11.325
	c3.028,0.252,5.806,0.252,12.11,0.757c3.531,0,7.316,0.757,11.102,1.009c20.182,2.27,39.604,6.559,60.295,13.875
	c8.321,3.027,18.164,7.82,26.737,12.614c3.279,2.018,6.562,4.541,10.095,6.811c27.241,18.416,44.901,49.446,52.221,73.917
	c0.504,2.018,1.263,3.784,2.019,6.055c0.504,1.009,4.541,19.677,4.541,23.966v15.894c-0.756,2.021-0.504,4.541-1.01,6.813
	c-0.252,1.514-1.011,3.026-1.767,4.793c-0.252,0.505,0,1.767-0.252,2.522c-0.507,2.771-2.271,5.549-3.531,8.828
	c-1.262,2.271-2.774,5.803-4.541,8.827c-1.769,3.027-6.562,8.326-6.562,9.082c0,0.507,0.759,1.769,1.011,2.774
	c2.772,9.587,3.276,10.344,3.276,18.67c0,19.424-13.114,30.271-31.278,30.271c-1.769,0-20.938-1.012-20.938-5.3
	c0-0.505,0.506-1.514,1.514-2.021c3.531-2.019,9.588-7.565,12.361-11.101c1.77-2.271,3.28-6.308,4.541-8.577v-0.757
	c-0.252-0.254-0.252-0.506-1.011-0.506c-0.504,0-3.278,2.271-5.045,2.774c-0.252,0.252-0.756,0.758-1.011,0.758
	c-0.506,0.252-1.264,0.504-2.02,0.504c-0.252,0.252-0.506,0.757-0.758,0.757c-3.781,1.769-8.07,3.279-11.604,4.795
	c-0.758,0.252-1.262,0.757-2.019,1.009c-5.047,1.769-10.092,3.784-15.139,5.299c-3.027,1.011-6.308,2.02-9.332,2.772
	c-5.302,1.517-10.853,3.027-16.397,4.037c-1.011,0.252-2.521,0.252-3.279,0.505c-3.529,0.758-6.813,1.768-10.092,2.271
	c-4.035,0.759-8.578,1.263-12.361,2.02c-6.559,1.01-13.367,2.271-20.182,3.027c-1.514,0.252-3.531,0.252-5.045,0.757
	c-1.767,0.505-1.262,2.019-1.514,3.026c-0.253,1.01-0.76,2.019-1.264,3.025c-3.782,8.828-13.368,18.668-21.946,23.967
	c-2.523,1.516-5.046,3.025-7.064,4.035c-2.521,1.012-4.793,2.522-7.314,3.531c-2.775,1.01-5.552,2.271-8.325,3.027
	c-6.561,1.766-14.127,3.781-20.938,4.54c-1.009,0-3.025,1.01-3.785,1.01H91.39c0-0.252-0.252-0.252-0.252-0.757
	c0-0.757,1.009-2.522,1.514-3.784c4.541-11.854,10.598-24.978,13.875-36.58c0-0.252,2.775-9.082,2.775-11.354
	c0-3.783-3.532-12.611-4.289-13.875c0-0.252-0.757-0.756-1.009-1.262c-8.072-15.643-26.993-26.236-40.111-31.029
	c-3.027-1.01-6.055-2.521-9.082-3.277c-0.756-0.252-1.766-0.252-2.773-0.506c-0.252,0-0.758-0.252-1.011-0.506
	c0.504-1.514,2.775-1.514,4.036-2.021c0.757-0.251,1.261-0.756,2.271-1.008c3.277-1.011,6.811-2.021,10.596-2.522
	c3.279-0.756,7.315-1.008,11.1-1.515l8.83-0.251c4.037-0.254,7.821,0,12.109,1.01c2.271,0.504,5.298,1.01,8.073,1.766
	c1.262,0.254,2.773,0.76,4.289,1.517c4.034,1.769,7.818,4.289,12.107,6.31c3.28,1.768,5.802,2.772,9.838,4.287
	c4.542,1.768,9.334,2.521,14.38,3.026c4.795,0.251,6.057,0.251,6.813,0.251c4.793,0,9.587-0.504,14.38-2.02
	c10.342-3.025,26.235-11.854,31.03-24.219c0-0.505,0.758-1.263,0.758-1.516c0.25-0.756,0.504-2.02,0.756-2.773
	c0.252-1.263,1.01-2.772,1.515-4.287v-5.551c-0.253-7.82-5.298-14.886-8.574-22.706c-2.776-3.281-6.06-6.812-9.336-10.092
	c-2.271-2.018-4.541-3.784-6.562-5.297c-12.36-8.073-25.982-12.614-38.094-11.857c-0.252-0.252-0.504-0.252-0.504-0.757
	c0-0.757,1.009-1.262,1.261-1.766c4.541-7.568,7.821-14.884,9.586-21.695c0.505-1.766,1.01-3.532,1.262-5.298
	c0.506-4.037,1.264-8.073,1.516-12.109c0-6.307-0.252-7.316-0.252-8.578c-0.253,0-0.253-0.252-0.505-0.504
	c-0.507,1.009-1.011,2.27-1.011,3.532c-1.262,16.146-9.839,36.832-29.264,49.446c-2.019,1.261-13.371,2.523-17.66,2.523
	c-7.314,0-17.659-2.018-22.705-4.037c-2.773-1.009-5.298-2.271-7.566-3.532c-4.541-2.271-10.597-6.055-14.379-10.343
	c-3.027-3.28-5.047-7.064-7.82-10.343c-1.009-1.261-3.532-2.523-4.542-3.027c-1.767-0.504-3.279-1.514-4.793-2.019
	c-1.768-0.504-4.036-0.757-5.802-1.009c-1.516-0.252-3.027-0.757-4.289-1.262c-3.279-1.009-6.309-6.054-6.309-8.325v-0.757
	c-0.504-1.261,1.516-3.532,3.28-3.784c2.775-0.757,6.307-1.009,9.586-1.766c2.522-0.504,5.297-1.766,7.82-2.775
	c1.009-0.504,2.271-1.514,3.278-2.018c9.082-5.802,14.129-16.902,14.129-24.471c0-8.325-8.073-18.416-10.85-23.209
	c-0.504-1.009-0.252-2.271-0.252-3.027V23.93v-0.75c0-1.009,0.757-1.766,1.514-2.522c3.532-4.289,7.568-2.775,11.857-4.036
	c1.261-0.505,3.279-0.252,4.793-0.505c10.343-1.766,20.434-2.522,31.03-3.784l10.596-0.252c2.522-0.252,5.297-0.504,8.073-0.757
	L148.404,11.325L148.404,11.325z M319.195,3c1.517,0.504,4.541-0.504,4.541,2.522l-0.504,18.416c0.25,1.514-0.506,3.785,0.756,5.046
	c1.515,1.261,3.531,1.766,5.3,2.775c1.01,0.504,2.021,1.514,3.276,2.018c4.037,2.271,8.83,4.541,13.371,7.064
	c0.252,0,0.758,0.504,0.758,1.009c0,0.757-1.262,2.018-1.262,3.279c-1.012,6.307-1.516,7.063-1.516,12.614
	c0,6.811-1.264,5.55,4.289,14.884c1.01,1.766,6.309,3.784,6.309,5.802c0,0.504-3.027,6.055-4.289,9.082
	c-4.793,11.1-8.072,21.695-8.83,33.048c0,0.757,0,1.514-0.506,2.271c-2.018-0.757-1.008-2.775-1.514-4.037
	c-0.756-3.279-2.021-6.559-3.025-9.334c-6.309-19.929-18.922-41.373-37.084-60.545c-1.012-1.262-2.521-2.018-3.533-3.28
	c-7.565-7.064-16.396-13.875-24.471-18.92c-3.531-2.018-6.813-4.289-10.092-6.055c-0.756-0.504-1.768-0.504-2.271-1.009
	c-2.521-1.261-5.297-2.522-8.068-4.036c-0.254,0-0.506-0.252-0.506-1.009c0-0.504,0-0.504,0.252-0.756
	c2.02-0.252,4.287-1.262,6.559-2.019c2.02-0.504,4.289-1.514,6.309-2.018c3.281-1.009,7.063-2.019,10.599-2.775
	c4.793-1.009,10.092-2.018,15.137-2.775c3.78-0.505,8.321-0.758,12.609-1.262H319.195z"/>
<path display="none" fill="#CCCCCC" d="M246.725,114.942c12.049,9.268,52.822,38.923,52.822,41.703v95.453
	c0,6.487-11.117,19.461-19.459,19.461h-58.385v-70.432c-3.707-14.827-19.461-25.947-32.438-25.947c-2.781,0-5.562,0.925-8.341,0.925
	c-7.415,0-25.021,15.756-25.021,25.949l-0.928,69.504h-58.38c-4.634-0.927-17.608-9.269-17.608-14.828V154.792
	c23.168-18.535,102.866-80.625,109.354-80.625C194.829,74.167,239.313,109.382,246.725,114.942z M194.829,25.05
	c19.463,12.975,39.851,29.656,59.312,44.483l0.928-21.315c1.854-6.487,12.975-5.56,18.533-5.56c1.854,0,18.534-1.854,18.534,5.56
	v49.117c12.048,9.267,25.021,18.534,36.142,29.655c1.854,0.926,1.854,4.633,1.854,7.413c0,9.267-8.342,14.828-14.827,14.828
	c-1.854,0-6.486-1.854-8.343-3.707c-7.414-4.634-14.826-10.194-21.313-15.755c-24.094-17.608-93.599-70.431-97.306-70.431
	c-5.563,0-88.04,64.871-117.695,86.186c-2.777,1.853-6.484,3.707-9.267,3.707c-9.269,0-13.901-7.414-13.901-14.828
	c0-2.78-0.926-5.56,0.927-7.413c6.487-8.341,14.828-13.901,22.241-18.535c17.608-12.975,37.07-27.802,55.604-41.703
	c16.681-12.974,35.215-27.802,54.678-40.776c1.853-1.854,5.559-0.927,7.413-0.927C191.122,25.05,192.975,24.124,194.829,25.05z"/>
<path display="none" fill="#CCCCCC" d="M194.454,146.008c0,2.901-1.451,13.053-4.354,18.854c-1.451,4.354-7.252,8.703-7.252,11.604
	c0,4.353,30.459,56.563,47.863,84.122c5.803,8.702,18.854,17.404,29.006,17.404c23.207,0,43.514-21.756,43.514-42.061
	c0-7.252-10.151-27.562-14.504-31.908c-5.803,5.801-13.055,14.504-20.307,21.756v-33.358c-2.898-15.955-5.803-33.358-8.703-52.214
	c29.01,8.702,66.719,73.968,66.719,100.075c0,37.71-29.006,66.718-63.813,66.718c-58.017,0-72.521-69.618-104.43-116.029
	c-10.15,0-23.205,0-33.357-7.253c5.803-2.899,11.604-10.151,20.306-13.054c2.901-1.45,10.153,0,15.954-2.898
	c8.703-5.803,13.054-13.055,13.054-21.757c0-14.504-11.603-24.656-24.654-24.656c-24.658,0-17.405,27.557-43.515,31.908
	c-1.449-39.16,18.855-50.763,44.962-50.763C177.047,102.497,194.454,122.802,194.454,146.008z M150.942,5.322v15.954
	c-18.855,73.969-116.03,46.413-116.03,108.779c0,27.556,26.104,39.159,46.411,39.159c11.604,0,31.907-2.899,44.962-13.054
	c1.448,1.451,2.899,4.352,5.801,7.253c-15.954,13.053-34.811,17.405-50.766,17.405c-29.007,0-56.563-17.405-56.563-50.764
	c0-17.405,4.352-37.71,33.359-50.764c14.503-7.252,33.357-11.603,50.763-21.755c21.756-11.604,33.359-34.81,30.458-52.214
	L150.942,5.322L150.942,5.322z"/>
<path display="none" fill="#CCCCCC" d="M217.689,117.293c0,20.438-16.569,35.354-35.354,35.354
	c-20.44,0-34.804-16.573-34.804-35.354c0-20.441,16.021-34.804,34.804-34.804C202.775,82.49,217.689,98.51,217.689,117.293z
	 M288.4,117.846c0,9.391-2.209,20.439-4.971,30.936c-2.213,7.733-6.631,17.677-12.154,25.963
	c-25.963,38.116-54.139,76.788-81.76,115.458c-0.553,0.553-6.076,4.418-7.182,4.418c-7.185,0-18.784-20.99-19.891-22.096
	c-7.182-10.498-15.468-21.545-22.648-32.043c-17.677-25.963-39.775-54.689-54.137-80.104c-2.765-4.971-8.841-27.067-8.841-34.801
	V110.11c6.63-64.634,57.453-98.332,105.517-98.332C242.549,11.779,288.4,60.393,288.4,117.846z"/>
<path fill="#FFFEFD" d="M185.443,66.758v89.141c7.64,4.584,11.204,12.224,11.204,18.847c0,12.734-10.693,21.902-21.901,21.902
	c-12.226,0-21.393-10.695-21.393-21.902c0-6.623,3.055-14.263,11.206-18.847v-22.412c0,0,0-0.509-1.018-0.509
	c-1.529,0-8.151,2.546-11.207,4.584c-16.3,10.187-20.884,24.45-20.884,37.184c0,25.469,20.375,43.808,43.296,43.808
	c19.356,0,37.694-11.718,43.808-38.204v-11.205c-2.035-6.621-3.563-14.262-9.679-20.884l16.81-13.244
	c10.189,12.226,14.263,27.506,14.263,39.732c0,37.692-30.054,65.201-65.2,65.201c-22.411,0-51.448-12.734-61.635-44.316
	c-1.528-4.585-3.057-13.755-3.057-14.772v-11.715c0.509-3.056,1.528-6.621,1.528-9.678c1.528-15.79,25.47-43.807,42.79-46.354
	c3.054-0.509,6.62-1.528,10.187-2.038V89.171c-0.509-0.51,0-0.51-1.528-0.51c-1.019,0-6.113,1.019-9.168,1.528
	c-18.337,3.056-47.882,23.941-57.051,45.844c-5.603,12.225-9.169,25.978-9.169,39.221c0,47.882,39.73,87.104,87.611,87.104
	s87.104-40.24,87.104-87.612c0-17.828-6.111-36.675-19.354-53.994l16.298-13.244c17.829,22.413,23.941,44.316,23.941,67.238
	c0,61.635-49.92,108.497-108.499,108.497c-38.202,0-83.538-20.885-102.893-73.859c-0.509-2.547-5.094-21.902-5.094-24.451v-19.865
	c1.019-4.583,1.528-9.678,2.038-13.752c0.509-3.566,2.547-7.131,3.056-10.698c5.092-20.375,32.09-53.994,55.011-63.163
	c2.546-1.019,5.603-2.547,8.15-3.565c4.073-2.038,9.679-3.566,14.262-4.585c5.093-1.018,11.206-1.528,16.81-2.547L185.443,66.758
	L185.443,66.758z"/>
</svg>
