<?xml version="1.0" encoding="utf-8"?>
<!-- Generator: Adobe Illustrator 15.0.0, SVG Export Plug-In . SVG Version: 6.00 Build 0)  -->
<!DOCTYPE svg PUBLIC "-//W3C//DTD SVG 1.1//EN" "http://www.w3.org/Graphics/SVG/1.1/DTD/svg11.dtd">
<svg version="1.1" id="Layer_1" xmlns="http://www.w3.org/2000/svg" xmlns:xlink="http://www.w3.org/1999/xlink" x="0px" y="0px"
	 width="380px" height="373px" viewBox="0 0 380 373" enable-background="new 0 0 380 373" xml:space="preserve">
<path fill-rule="evenodd" clip-rule="evenodd" fill="#FFFFFF" d="M150.522,117.71c0,0.33-0.83,2.49-0.83,2.83
	c-0.17,0.82-1.33,2.82-2.49,3.48c-1.16,0.67-3.66,1.83-4.81,1.83c-0.5,0-2.66-0.33-3.66-1c-4.15-2.32-4.65-4.98-4.65-7.64
	c0-4.97,4.15-7.97,8.31-7.97C147.372,109.24,150.522,113.89,150.522,117.71z M161.972,97.63c1.99,0.16,3.82,0.16,7.97,0.49
	c2.32,0,4.81,0.5,7.31,0.67c13.279,1.49,26.061,4.31,39.67,9.13c5.48,1.99,11.95,5.15,17.6,8.3c2.15,1.33,4.311,2.99,6.641,4.48
	c17.92,12.12,29.54,32.54,34.359,48.641c0.34,1.329,0.83,2.489,1.33,3.979c0.33,0.67,2.98,12.95,2.98,15.78v10.449
	c-0.5,1.33-0.32,2.99-0.66,4.49c-0.16,0.99-0.66,1.99-1.16,3.15c-0.17,0.33,0,1.17-0.17,1.66c-0.33,1.819-1.49,3.649-2.32,5.81
	c-0.83,1.489-1.819,3.819-2.99,5.81c-1.159,2-4.309,5.48-4.309,5.98c0,0.33,0.5,1.16,0.659,1.83c1.82,6.3,2.16,6.8,2.16,12.279
	c0,12.781-8.64,19.92-20.58,19.92c-1.17,0-13.79-0.659-13.79-3.489c0-0.33,0.33-1,1-1.33c2.32-1.33,6.311-4.979,8.13-7.3
	c1.171-1.49,2.16-4.15,3-5.65v-0.5c-0.17-0.16-0.17-0.32-0.67-0.32c-0.33,0-2.159,1.49-3.319,1.82c-0.16,0.17-0.5,0.5-0.67,0.5
	c-0.32,0.16-0.82,0.33-1.32,0.33c-0.17,0.17-0.33,0.5-0.5,0.5c-2.49,1.16-5.32,2.16-7.641,3.16c-0.5,0.16-0.83,0.49-1.33,0.65
	c-3.31,1.17-6.64,2.5-9.949,3.49c-2,0.659-4.15,1.329-6.15,1.829c-3.49,0.99-7.141,1.99-10.79,2.65c-0.67,0.17-1.66,0.17-2.16,0.34
	c-2.319,0.5-4.479,1.16-6.64,1.489c-2.65,0.5-5.641,0.83-8.131,1.33c-4.319,0.66-8.799,1.49-13.279,1.99c-1,0.17-2.32,0.17-3.32,0.5
	c-1.16,0.33-0.83,1.32-1,1.99c-0.16,0.66-0.5,1.33-0.83,1.99c-2.48,5.811-8.8,12.279-14.44,15.77c-1.66,1-3.32,1.99-4.65,2.66
	c-1.66,0.66-3.16,1.66-4.81,2.32c-1.83,0.67-3.66,1.49-5.48,2c-4.32,1.15-9.3,2.48-13.78,2.98c-0.66,0-1.99,0.67-2.49,0.67h-1
	c0-0.17-0.16-0.17-0.16-0.5c0-0.5,0.66-1.66,0.99-2.49c2.99-7.811,6.98-16.44,9.14-24.07c0-0.17,1.82-5.98,1.82-7.48
	c0-2.479-2.32-8.299-2.82-9.119c0-0.17-0.5-0.5-0.67-0.83c-5.31-10.301-17.76-17.27-26.39-20.42c-1.99-0.67-3.98-1.67-5.98-2.16
	c-0.5-0.16-1.16-0.16-1.82-0.33c-0.17,0-0.5-0.17-0.67-0.33c0.33-1,1.83-1,2.66-1.33c0.5-0.17,0.82-0.5,1.49-0.67
	c2.16-0.66,4.48-1.33,6.97-1.66c2.16-0.5,4.82-0.66,7.31-1l5.81-0.16c2.66-0.16,5.15,0,7.97,0.66c1.49,0.34,3.49,0.67,5.31,1.17
	c0.83,0.16,1.83,0.5,2.82,0.99c2.66,1.17,5.15,2.83,7.97,4.15c2.16,1.17,3.82,1.83,6.48,2.83c2.98,1.16,6.14,1.649,9.46,1.99
	c3.15,0.159,3.98,0.159,4.48,0.159c3.15,0,6.31-0.33,9.46-1.319c6.81-2,17.27-7.811,20.42-15.94c0-0.341,0.5-0.83,0.5-1
	c0.17-0.5,0.33-1.33,0.49-1.82c0.17-0.829,0.67-1.829,1-2.829v-3.65c-0.17-5.15-3.48-9.791-5.641-14.94
	c-1.82-2.159-3.99-4.479-6.14-6.64c-1.5-1.33-2.99-2.49-4.32-3.48c-8.13-5.32-17.1-8.31-25.07-7.81c-0.16-0.16-0.33-0.16-0.33-0.5
	c0-0.49,0.67-0.83,0.83-1.16c2.99-4.979,5.15-9.8,6.31-14.28c0.33-1.16,0.67-2.32,0.83-3.49c0.33-2.649,0.83-5.31,1-7.959
	c0-4.15-0.17-4.811-0.17-5.641c-0.16,0-0.16-0.17-0.33-0.34c-0.33,0.67-0.66,1.5-0.66,2.33c-0.84,10.619-6.48,24.24-19.26,32.529
	c-1.33,0.83-8.8,1.67-11.63,1.67c-4.81,0-11.62-1.33-14.93-2.659c-1.83-0.66-3.49-1.49-4.98-2.32c-2.99-1.5-6.98-3.989-9.47-6.81
	c-1.99-2.16-3.32-4.65-5.14-6.811c-0.67-0.82-2.33-1.65-2.99-1.99c-1.16-0.33-2.16-0.99-3.15-1.33c-1.17-0.33-2.66-0.489-3.82-0.66
	c-1-0.17-1.99-0.5-2.82-0.829c-2.16-0.671-4.15-3.979-4.15-5.479v-0.5c-0.34-0.83,0.99-2.32,2.16-2.49c1.82-0.5,4.14-0.66,6.3-1.16
	c1.67-0.33,3.49-1.17,5.15-1.82c0.66-0.34,1.49-1,2.15-1.33c5.98-3.82,9.3-11.12,9.3-16.11c0-5.48-5.31-12.12-7.14-15.27
	c-0.33-0.66-0.16-1.49-0.16-1.99v-0.5v-0.5c0-0.66,0.5-1.16,0.99-1.65c2.32-2.83,4.98-1.83,7.81-2.66c0.83-0.33,2.15-0.17,3.15-0.33
	c6.81-1.17,13.45-1.66,20.42-2.5l6.97-0.16c1.66-0.17,3.49-0.33,5.31-0.5L161.972,97.63z M274.352,92.15c1,0.33,3-0.33,3,1.66
	l-0.34,12.12c0.17,0.99-0.33,2.48,0.5,3.31c0.99,0.84,2.32,1.17,3.49,1.83c0.67,0.33,1.33,1,2.15,1.33c2.66,1.49,5.81,2.99,8.8,4.65
	c0.17,0,0.5,0.33,0.5,0.66c0,0.5-0.83,1.33-0.83,2.16c-0.67,4.15-0.99,4.65-0.99,8.3c0,4.479-0.84,3.65,2.82,9.8
	c0.659,1.15,4.14,2.48,4.14,3.811c0,0.33-1.98,3.98-2.82,5.98c-3.149,7.299-5.31,14.279-5.81,21.75c0,0.5,0,0.989-0.33,1.489
	c-1.33-0.5-0.659-1.819-0.989-2.659c-0.5-2.16-1.33-4.311-1.99-6.141c-4.16-13.109-12.45-27.221-24.41-39.84
	c-0.67-0.83-1.66-1.32-2.32-2.16c-4.98-4.65-10.79-9.13-16.109-12.45c-2.32-1.32-4.48-2.82-6.641-3.98
	c-0.5-0.34-1.16-0.34-1.49-0.67c-1.66-0.83-3.49-1.65-5.31-2.65c-0.16,0-0.341-0.17-0.341-0.67c0-0.33,0-0.33,0.181-0.49
	c1.319-0.17,2.81-0.83,4.3-1.33c1.33-0.33,2.83-1,4.16-1.33c2.16-0.67,4.65-1.33,6.971-1.82c3.149-0.67,6.639-1.34,9.969-1.84
	c2.48-0.32,5.471-0.5,8.291-0.82H274.352L274.352,92.15z"/>
</svg>
