<?xml version="1.0" encoding="utf-8"?>
<!-- Generator: Adobe Illustrator 15.0.0, SVG Export Plug-In . SVG Version: 6.00 Build 0)  -->
<!DOCTYPE svg PUBLIC "-//W3C//DTD SVG 1.1//EN" "http://www.w3.org/Graphics/SVG/1.1/DTD/svg11.dtd">
<svg version="1.1" id="Capa_1" xmlns="http://www.w3.org/2000/svg" xmlns:xlink="http://www.w3.org/1999/xlink" x="0px" y="0px"
	 width="31.316px" height="17.752px" viewBox="-0.983 -0.379 31.316 17.752" enable-background="new -0.983 -0.379 31.316 17.752"
	 xml:space="preserve">
<g>
	<g>
		<g>
			<g>
				<path fill="#009688" d="M22.288,13.793c-2.097-1.721-4.352-2.859-4.814-3.084c-0.051-0.025-0.084-0.076-0.084-0.135V7.315
					c0.412-0.276,0.682-0.739,0.682-1.267V2.668c0-1.684-1.361-3.047-3.046-3.047h-0.359H14.3c-1.685,0-3.046,1.363-3.046,3.047
					v3.381c0,0.527,0.271,0.996,0.681,1.267v3.259c0,0.059-0.031,0.107-0.083,0.135c-0.462,0.225-2.719,1.369-4.813,3.084
					c-0.379,0.309-0.599,0.779-0.599,1.266v2.314h8.227h8.221v-2.314C22.886,14.573,22.667,14.102,22.288,13.793z"/>
			</g>
			<g>
				<path fill="#009688" d="M29.814,11.514c-1.755-1.447-3.649-2.405-4.037-2.592c-0.045-0.02-0.069-0.063-0.069-0.115v-2.73
					c0.342-0.23,0.572-0.617,0.572-1.065V2.177c0-1.408-1.145-2.554-2.552-2.554h-0.303h-0.302c-1.408,0-2.553,1.146-2.553,2.554
					v2.834c0,0.442,0.227,0.835,0.571,1.065v2.73c0,0.052-0.023,0.09-0.069,0.115c-0.237,0.117-1.061,0.528-2.063,1.17
					c1.002,0.553,2.589,1.504,4.087,2.738c0.526,0.43,0.874,1.027,1.002,1.684h6.234v-1.939
					C30.315,12.161,30.134,11.768,29.814,11.514z"/>
			</g>
			<g>
				<path fill="#009688" d="M8.271,8.922c-0.044-0.02-0.069-0.063-0.069-0.115v-2.73c0.341-0.23,0.57-0.617,0.57-1.065V2.177
					c0-1.408-1.143-2.554-2.551-2.554H5.919H5.604c-1.407,0-2.551,1.146-2.551,2.554v2.834c0,0.442,0.225,0.835,0.572,1.065v2.73
					c0,0.052-0.026,0.09-0.07,0.115c-0.387,0.188-2.283,1.145-4.037,2.592c-0.313,0.262-0.501,0.646-0.501,1.061v1.939H5.25
					c0.123-0.654,0.477-1.254,1.003-1.684c1.497-1.234,3.085-2.186,4.087-2.738C9.332,9.45,8.509,9.039,8.271,8.922z"/>
			</g>
		</g>
	</g>
</g>
</svg>
