<?xml version="1.0" encoding="utf-8"?>
<!-- Generator: Adobe Illustrator 15.0.0, SVG Export Plug-In . SVG Version: 6.00 Build 0)  -->
<!DOCTYPE svg PUBLIC "-//W3C//DTD SVG 1.1//EN" "http://www.w3.org/Graphics/SVG/1.1/DTD/svg11.dtd">
<svg version="1.1" id="Capa_1" xmlns="http://www.w3.org/2000/svg" xmlns:xlink="http://www.w3.org/1999/xlink" x="0px" y="0px"
	 width="32px" height="32px" viewBox="0 0 32 32" enable-background="new 0 0 32 32" xml:space="preserve">
<g>
	<g>
		<g>
			<path fill="#009688" d="M15.151,14.714c0,0,0.156,0.314,0.301,0.349c1.051,0.248,5.739,1.314,7.086,0.471
				c0.721-0.479-1.918-2.733-1.918-2.733s3.114,1.438,3.646,0.912c1.928-3.104-3.041-8.21-4.304-9.415
				c-0.317-0.357-0.551-0.089-0.551-0.089l-5.896,4.085L15.151,14.714z M20.598,8.917c0.516,0,0.937,0.419,0.937,0.935
				c0,0.517-0.421,0.936-0.937,0.936c-0.517,0-0.937-0.419-0.937-0.936C19.664,9.336,20.082,8.917,20.598,8.917z"/>
			<path fill="#009688" d="M13.639,14.441c0.646,0.036,0.46-0.681,0.46-0.681l-1.485-5.896l6.306-4.127c0,0,0.42-0.278,0.021-0.529
				c-1.004-0.856-3.944-3.286-4.936-3.206c-1.199,0.096-0.911,3.26-1.774,3.068C3.218,3.5,0.019,19.05,0.438,19.561
				c0.419,0.51,0.761,0.869,1.533,0.289c0.787,1.709-1.033,5.582-1.64,7.166c-0.158,0.479,0.244,0.354,0.521,0.114
				c1.392-1.391,2.378-1.885,2.936-1.83c0.557,0.056,1.844,0.543,2.591,0.959c0.357,0.265,0.771,0.191,0.393-0.348
				C0.946,13.647,10.901,14.159,13.639,14.441z"/>
			<path fill="#009688" d="M16.848,17.283c0,0-0.154-0.313-0.302-0.35c-1.049-0.248-5.736-1.313-7.085-0.474
				c-0.719,0.479,1.917,2.731,1.917,2.731s-3.115-1.437-3.643-0.907c-1.93,3.104,3.04,8.209,4.303,9.414
				c0.317,0.354,0.551,0.09,0.551,0.09l5.896-4.086L16.848,17.283z M11.402,23.08c-0.516,0-0.935-0.418-0.935-0.936
				c0-0.52,0.419-0.938,0.935-0.938c0.517,0,0.935,0.42,0.935,0.938C12.337,22.662,11.919,23.08,11.402,23.08z"/>
			<path fill="#009688" d="M31.148,4.866c-1.393,1.391-2.379,1.885-2.938,1.831c-0.561-0.054-1.844-0.543-2.59-0.96
				c-0.357-0.263-0.771-0.19-0.396,0.349c5.822,12.266-4.131,11.753-6.869,11.471c-0.646-0.035-0.459,0.685-0.459,0.685l1.482,5.895
				l-6.303,4.13c0,0-0.42,0.276-0.021,0.526c1.004,0.854,3.945,3.287,4.936,3.207c1.194-0.101,0.907-3.265,1.771-3.065
				c9.014-0.435,12.213-15.98,11.793-16.493c-0.42-0.509-0.762-0.868-1.533-0.288c-0.787-1.709,1.033-5.583,1.645-7.166
				C31.826,4.504,31.425,4.632,31.148,4.866z"/>
		</g>
	</g>
</g>
</svg>
