<?xml version="1.0" encoding="utf-8"?>
<!-- Generator: Adobe Illustrator 15.0.0, SVG Export Plug-In . SVG Version: 6.00 Build 0)  -->
<!DOCTYPE svg PUBLIC "-//W3C//DTD SVG 1.1//EN" "http://www.w3.org/Graphics/SVG/1.1/DTD/svg11.dtd">
<svg version="1.1" id="Layer_1" xmlns="http://www.w3.org/2000/svg" xmlns:xlink="http://www.w3.org/1999/xlink" x="0px" y="0px"
	 width="373.514px" height="308px" viewBox="0 0 373.514 308" enable-background="new 0 0 373.514 308" xml:space="preserve">
<path display="none" fill="#ED4062" d="M246.725,114.942c12.048,9.268,52.823,38.923,52.823,41.703v95.453
	c0,6.487-11.119,19.461-19.46,19.461h-58.385v-70.432c-3.706-14.827-19.461-25.947-32.436-25.947c-2.78,0-5.56,0.926-8.34,0.926
	c-7.415,0-25.021,15.756-25.021,25.949l-0.927,69.504H96.596c-4.634-0.927-17.608-9.269-17.608-14.828V154.792
	c23.168-18.535,102.866-80.625,109.354-80.625C194.829,74.167,239.313,109.382,246.725,114.942z M194.829,25.05
	c19.462,12.975,39.849,29.656,59.31,44.483l0.928-21.315c1.854-6.487,12.974-5.56,18.533-5.56c1.854,0,18.535-1.854,18.535,5.56
	v49.117c12.047,9.267,25.022,18.534,36.142,29.655c1.854,0.926,1.854,4.633,1.854,7.413c0,9.267-8.341,14.828-14.828,14.828
	c-1.854,0-6.486-1.854-8.341-3.707c-7.414-4.634-14.827-10.194-21.314-15.755c-24.095-17.608-93.599-70.431-97.306-70.431
	c-5.562,0-88.039,64.871-117.695,86.186c-2.778,1.853-6.485,3.707-9.267,3.707c-9.268,0-13.901-7.414-13.901-14.828
	c0-2.78-0.926-5.56,0.927-7.413c6.487-8.341,14.828-13.901,22.241-18.535c17.608-12.975,37.07-27.802,55.604-41.703
	c16.681-12.974,35.215-27.802,54.677-40.776c1.853-1.854,5.56-0.927,7.414-0.927C191.122,25.05,192.975,24.124,194.829,25.05z"/>
<path display="none" fill="#ED4062" d="M194.454,146.008c0,2.901-1.451,13.053-4.353,18.854c-1.451,4.353-7.252,8.703-7.252,11.604
	c0,4.353,30.459,56.563,47.863,84.122c5.802,8.702,18.854,17.404,29.007,17.404c23.206,0,43.513-21.756,43.513-42.061
	c0-7.252-10.153-27.559-14.505-31.908c-5.802,5.801-13.054,14.504-20.305,21.756v-33.358c-2.9-15.955-5.803-33.358-8.703-52.214
	c29.008,8.702,66.718,73.968,66.718,100.075c0,37.71-29.007,66.718-63.816,66.718c-58.015,0-72.519-69.618-104.428-116.029
	c-10.151,0-23.205,0-33.358-7.253c5.803-2.899,11.604-10.151,20.306-13.054c2.901-1.45,10.153,0,15.954-2.898
	c8.702-5.803,13.054-13.055,13.054-21.757c0-14.504-11.603-24.656-24.655-24.656c-24.658,0-17.405,27.557-43.514,31.908
	c-1.449-39.16,18.855-50.763,44.962-50.763C177.048,102.497,194.454,122.802,194.454,146.008z M150.942,5.322v15.954
	C132.087,95.245,34.912,67.689,34.912,130.055c0,27.556,26.105,39.159,46.411,39.159c11.604,0,31.908-2.899,44.962-13.054
	c1.449,1.451,2.9,4.352,5.801,7.253c-15.954,13.053-34.81,17.405-50.765,17.405c-29.007,0-56.563-17.405-56.563-50.764
	c0-17.405,4.352-37.71,33.359-50.764c14.503-7.252,33.358-11.603,50.763-21.755c21.756-11.604,33.359-34.81,30.458-52.214
	L150.942,5.322L150.942,5.322z"/>
<path display="none" fill="#ED4062" d="M217.69,117.293c0,20.438-16.572,35.354-35.354,35.354c-20.44,0-34.804-16.573-34.804-35.354
	c0-20.441,16.021-34.804,34.804-34.804C202.775,82.49,217.69,98.51,217.69,117.293z M288.4,117.846
	c0,9.391-2.209,20.439-4.97,30.936c-2.212,7.733-6.63,17.677-12.155,25.963c-25.963,38.116-54.138,76.788-81.759,115.458
	c-0.553,0.553-6.077,4.418-7.182,4.418c-7.183,0-18.783-20.99-19.889-22.096c-7.182-10.498-15.468-21.545-22.649-32.043
	c-17.677-25.963-39.775-54.689-54.137-80.103c-2.764-4.971-8.84-27.067-8.84-34.801V110.11
	c6.63-64.634,57.453-98.332,105.515-98.332C242.549,11.779,288.4,60.393,288.4,117.846z"/>
<path display="none" fill="#ED4062" d="M203.537,2.779v123.729c10.604,6.363,15.554,16.968,15.554,26.16
	c0,17.675-14.847,30.402-30.402,30.402c-16.969,0-29.694-14.848-29.694-30.402c0-9.191,4.241-19.797,15.554-26.16V95.399
	c0,0,0-0.707-1.414-0.707c-2.121,0-11.313,3.535-15.554,6.363c-22.625,14.141-28.988,33.937-28.988,51.613
	c0,35.352,28.281,60.805,60.097,60.805c26.867,0,52.32-16.263,60.805-53.027v-15.554c-2.828-9.191-4.949-19.796-13.435-28.988
	l23.332-18.383c14.141,16.969,19.797,38.179,19.797,55.148c0,52.32-41.715,90.5-90.5,90.5c-31.108,0-71.41-17.676-85.55-61.512
	c-2.121-6.363-4.242-19.09-4.242-20.504v-16.261c0.707-4.242,2.121-9.191,2.121-13.434c2.121-21.917,35.352-60.804,59.391-64.339
	c4.241-0.707,9.19-2.121,14.14-2.828V33.888c-0.707-0.707,0-0.707-2.121-0.707c-1.414,0-8.484,1.414-12.726,2.121
	c-25.453,4.242-66.461,33.23-79.188,63.632c-7.777,16.969-12.727,36.058-12.727,54.441c0,66.46,55.147,120.9,121.607,120.9
	s120.901-55.854,120.901-121.607c0-24.746-8.484-50.906-26.866-74.945l22.624-18.382c24.746,31.109,33.23,61.511,33.23,93.327
	c0,85.55-69.289,150.596-150.597,150.596c-53.026,0-115.952-28.988-142.818-102.519c-0.707-3.535-7.07-30.402-7.07-33.938v-27.574
	c1.414-6.363,2.121-13.433,2.828-19.089c0.707-4.949,3.535-9.898,4.242-14.848c7.069-28.281,44.542-74.945,76.357-87.671
	c3.535-1.414,7.777-3.535,11.313-4.949c5.655-2.828,13.434-4.949,19.797-6.363c7.07-1.414,15.554-2.121,23.332-3.535L203.537,2.779
	L203.537,2.779z"/>
<path fill-rule="evenodd" clip-rule="evenodd" fill="#4DB6AC" d="M335.181,5.96c1.469,0.5,4.409-0.48,4.409,2.46l-0.489,17.9
	c0.239,1.47-0.49,3.68,0.739,4.91c1.47,1.23,3.431,1.72,5.15,2.7c0.979,0.49,1.96,1.47,3.18,1.96c3.931,2.21,8.59,4.41,13,6.87
	c0.25,0,0.74,0.49,0.74,0.98c0,0.73-1.229,1.96-1.229,3.19c-0.98,6.13-1.471,6.86-1.471,12.26c0,6.62-1.23,5.4,4.17,14.47
	c0.98,1.72,6.13,3.68,6.13,5.64c0,0.49-2.94,5.89-4.17,8.83c-4.659,10.79-7.85,21.1-8.58,32.13c0,0.74,0,1.47-0.489,2.21
	c-1.971-0.74-0.98-2.7-1.48-3.92c-0.73-3.19-1.96-6.38-2.939-9.08C345.72,90.1,333.46,69.25,315.8,50.61
	c-0.98-1.23-2.46-1.97-3.439-3.19c-7.36-6.87-15.94-13.49-23.791-18.4c-3.43-1.96-6.619-4.17-9.81-5.89
	c-0.739-0.48-1.72-0.48-2.21-0.98c-2.449-1.22-5.15-2.45-7.85-3.92c-0.24,0-0.49-0.25-0.49-0.98c0-0.49,0-0.49,0.25-0.74
	c1.96-0.24,4.17-1.22,6.37-1.96c1.97-0.49,4.17-1.47,6.14-1.96c3.19-0.98,6.86-1.96,10.301-2.7c4.66-0.98,9.81-1.96,14.709-2.7
	c3.69-0.49,8.101-0.73,12.271-1.22h16.931V5.96z M169.13,14.06c2.94,0.25,5.64,0.25,11.77,0.74c3.43,0,7.11,0.73,10.791,0.98
	c19.619,2.2,38.51,6.37,58.619,13.49c8.101,2.94,17.66,7.6,26,12.26c3.19,1.96,6.381,4.42,9.811,6.62
	c26.49,17.91,43.66,48.08,50.77,71.87c0.49,1.96,1.23,3.68,1.961,5.88c0.489,0.99,4.42,19.14,4.42,23.31v15.45
	c-0.73,1.96-0.49,4.41-0.98,6.619c-0.25,1.471-0.98,2.941-1.721,4.66c-0.239,0.49,0,1.721-0.239,2.451
	c-0.49,2.699-2.21,5.399-3.44,8.59c-1.22,2.209-2.699,5.64-4.41,8.58c-1.72,2.939-6.379,8.1-6.379,8.83
	c0,0.489,0.739,1.719,0.979,2.699c2.7,9.32,3.19,10.051,3.19,18.15c0,18.88-12.761,29.43-30.42,29.43
	c-1.711,0-20.351-0.98-20.351-5.15c0-0.49,0.49-1.47,1.47-1.959c3.43-1.961,9.32-7.36,12.021-10.791
	c1.72-2.209,3.19-6.129,4.409-8.34v-0.74c-0.239-0.239-0.239-0.489-0.979-0.489c-0.489,0-3.19,2.21-4.899,2.7
	c-0.25,0.24-0.74,0.74-0.98,0.74c-0.49,0.239-1.23,0.479-1.96,0.479c-0.25,0.25-0.5,0.739-0.74,0.739
	c-3.68,1.721-7.85,3.19-11.28,4.66c-0.74,0.25-1.229,0.74-1.959,0.98c-4.91,1.721-9.82,3.68-14.721,5.15
	c-2.949,0.979-6.13,1.959-9.08,2.699c-5.15,1.471-10.54,2.94-15.939,3.93c-0.98,0.24-2.45,0.24-3.19,0.49
	c-3.43,0.73-6.62,1.711-9.81,2.201c-3.92,0.739-8.34,1.229-12.021,1.969c-6.37,0.98-13,2.201-19.62,2.94
	c-1.47,0.24-3.43,0.24-4.9,0.729c-1.72,0.49-1.23,1.971-1.48,2.951c-0.24,0.979-0.73,1.959-1.22,2.939
	c-3.68,8.58-13,18.15-21.34,23.3c-2.45,1.47-4.91,2.94-6.87,3.921c-2.45,0.989-4.66,2.459-7.11,3.439c-2.7,0.98-5.4,2.21-8.1,2.939
	c-6.37,1.721-13.73,3.68-20.35,4.42c-0.98,0-2.95,0.98-3.68,0.98h-1.47c0-0.25-0.25-0.25-0.25-0.74c0-0.73,0.98-2.449,1.47-3.68
	c4.42-11.53,10.3-24.28,13.49-35.561c0-0.25,2.7-8.83,2.7-11.039c0-3.681-3.43-12.26-4.17-13.49c0-0.24-0.73-0.73-0.98-1.221
	c-7.85-15.209-26.24-25.51-39-30.18c-2.94-0.97-5.88-2.449-8.83-3.18c-0.73-0.25-1.71-0.25-2.7-0.49c-0.24,0-0.73-0.25-0.98-0.5
	c0.49-1.47,2.7-1.47,3.93-1.96c0.73-0.239,1.22-0.729,2.2-0.979c3.19-0.98,6.63-1.961,10.31-2.451
	c3.18-0.739,7.11-0.979,10.79-1.469l8.58-0.25c3.93-0.24,7.61,0,11.78,0.979c2.2,0.489,5.15,0.989,7.84,1.72
	c1.23,0.25,2.7,0.74,4.17,1.471c3.93,1.72,7.61,4.17,11.78,6.14c3.19,1.71,5.64,2.69,9.56,4.17c4.42,1.71,9.08,2.45,13.98,2.94
	c4.66,0.24,5.89,0.24,6.63,0.24c4.65,0,9.32-0.49,13.979-1.961c10.051-2.939,25.5-11.529,30.16-23.55c0-0.489,0.74-1.22,0.74-1.47
	c0.25-0.73,0.49-1.961,0.74-2.7c0.24-1.22,0.98-2.69,1.47-4.16v-5.399c-0.25-7.601-5.149-14.471-8.34-22.07
	c-2.7-3.19-5.89-6.63-9.08-9.82c-2.2-1.96-4.41-3.67-6.37-5.15c-12.02-7.85-25.27-12.26-37.04-11.52c-0.24-0.25-0.49-0.25-0.49-0.74
	c0-0.74,0.98-1.23,1.23-1.72c4.41-7.36,7.6-14.47,9.32-21.09c0.49-1.72,0.98-3.43,1.22-5.15c0.49-3.93,1.23-7.85,1.48-11.77
	c0-6.14-0.25-7.12-0.25-8.34c-0.25,0-0.25-0.25-0.49-0.49c-0.49,0.98-0.98,2.2-0.98,3.43c-1.23,15.7-9.57,35.81-28.45,48.07
	c-1.97,1.23-13,2.46-17.17,2.46c-7.12,0-17.17-1.96-22.08-3.93c-2.69-0.98-5.15-2.2-7.35-3.43c-4.42-2.21-10.31-5.89-13.98-10.06
	c-2.95-3.18-4.91-6.87-7.61-10.05c-0.98-1.23-3.43-2.46-4.41-2.95c-1.72-0.49-3.19-1.47-4.66-1.96c-1.72-0.49-3.93-0.73-5.65-0.98
	c-1.47-0.24-2.94-0.73-4.17-1.22c-3.18-0.98-6.13-5.89-6.13-8.1v-0.73c-0.49-1.23,1.48-3.44,3.19-3.68c2.7-0.74,6.13-0.98,9.32-1.72
	c2.45-0.49,5.15-1.72,7.61-2.7c0.98-0.49,2.2-1.47,3.18-1.96c8.83-5.64,13.74-16.43,13.74-23.79c0-8.09-7.85-17.91-10.55-22.57
	c-0.49-0.98-0.24-2.2-0.24-2.94v-0.73v-0.74c0-0.98,0.73-1.72,1.47-2.45c3.43-4.17,7.36-2.7,11.53-3.93
	c1.22-0.49,3.19-0.24,4.66-0.49c10.05-1.72,19.86-2.45,30.16-3.68l10.31-0.24c2.45-0.25,5.15-0.49,7.85-0.74H169.13L169.13,14.06z
	 M152.2,43.74c0,0.49-1.22,3.68-1.22,4.17c-0.25,1.22-1.97,4.17-3.68,5.15c-1.72,0.98-5.4,2.69-7.12,2.69
	c-0.73,0-3.92-0.49-5.39-1.47c-6.13-3.43-6.87-7.36-6.87-11.28c0-7.36,6.13-11.77,12.26-11.77C147.54,31.23,152.2,38.1,152.2,43.74z
	"/>
</svg>
