<?xml version="1.0" encoding="utf-8"?>
<!-- Generator: Adobe Illustrator 15.0.0, SVG Export Plug-In . SVG Version: 6.00 Build 0)  -->
<!DOCTYPE svg PUBLIC "-//W3C//DTD SVG 1.1//EN" "http://www.w3.org/Graphics/SVG/1.1/DTD/svg11.dtd">
<svg version="1.1" id="Layer_1" xmlns="http://www.w3.org/2000/svg" xmlns:xlink="http://www.w3.org/1999/xlink" x="0px" y="0px"
	 width="220px" height="220px" viewBox="0 0 220 220" enable-background="new 0 0 220 220" xml:space="preserve">
<g>
	<g>
		<path fill="#009688" d="M73.744,76.769c-50.881,21.336-60.999,68.956-60.999,68.956c-6.909,26.4,3.979,46.411,3.979,46.411
			c12.054,18.472,33.151,21.218,33.151,21.218c52.923,7.239,87.52,3.979,87.52,3.979c49.037-2.282,58.106-16.708,59.672-18.564
			c16.377-18.5,11.936-47.738,11.936-47.738c-8.885-40.71-37.13-58.346-37.13-58.346c-24.308-18.259-34.478-18.565-34.478-18.565
			C108.712,91.077,73.744,76.769,73.744,76.769z"/>
		<path fill="#009688" d="M77.723,68.813c23.603,8.275,51.716-2.652,51.716-2.652c3.156-1.101,1.326-14.586,1.326-14.586
			c0.809-13.764,10.607-27.847,10.607-27.847c6.286-12.955-11.936-10.608-11.936-10.608c-7.121,3.792-9.281,7.956-9.281,7.956
			c-3.475,1.22-7.957-9.282-7.957-9.282c-3.965-13.313-13.26-9.282-13.26-9.282C90.571,6.158,88.33,17.098,88.33,17.098
			c-3.143,5.198-18.393-8.513-26.083-0.278c-5.789,7.454-3.09,13.539-3.09,13.539C71.622,69.913,77.723,68.813,77.723,68.813z"/>
	</g>
</g>
<g>
	<path fill="#FFFFFF" d="M101.592,194.788h11.934v-11.937c5.412-1.326,9.642-3.752,12.679-7.318
		c3.022-3.539,4.562-7.678,4.562-12.452c0-3.354-0.582-6.392-1.736-9.136c-1.168-2.731-2.838-5.118-5.039-7.161
		c-2.215-2.056-5.821-4.31-10.821-6.763c-9.481-4.642-14.228-9.098-14.228-13.406c0-2.521,0.809-4.602,2.466-6.26
		c1.657-1.657,3.978-2.479,6.988-2.479c5.052,0,9.878,1.326,14.441,3.978l3.952-11.935c-2.904-2.108-7.333-3.434-13.261-3.978
		l0.039-9.282h-11.974v9.282c-4.854,1.246-8.726,3.713-11.604,7.374c-2.877,3.687-4.31,7.942-4.31,12.742
		c0,3.25,0.518,6.193,1.591,8.846c1.087,2.652,2.612,4.959,4.627,6.869c1.99,1.896,5.755,4.256,11.312,7.056
		c5.556,2.798,9.322,5.396,11.311,7.756c1.99,2.362,2.984,4.881,2.984,7.586c0,5.386-3.872,8.075-11.603,8.075
		c-5.052,0-10.171-1.764-15.356-5.305l-4.866,11.936c4.813,3.128,10.118,4.893,15.913,5.305V194.788L101.592,194.788z"/>
</g>
</svg>
