<?xml version="1.0" encoding="utf-8"?>
<!-- Generator: Adobe Illustrator 15.0.0, SVG Export Plug-In . SVG Version: 6.00 Build 0)  -->
<!DOCTYPE svg PUBLIC "-//W3C//DTD SVG 1.1//EN" "http://www.w3.org/Graphics/SVG/1.1/DTD/svg11.dtd">
<svg version="1.1" id="Layer_1" xmlns="http://www.w3.org/2000/svg" xmlns:xlink="http://www.w3.org/1999/xlink" x="0px" y="0px"
	 width="338px" height="293px" viewBox="0 0 338 293" enable-background="new 0 0 338 293" xml:space="preserve">
<path fill-rule="evenodd" clip-rule="evenodd" fill="#FEFFFF" d="M17.135,83.31c-7.776,2.678-11.923,11.155-9.26,18.932
	l59.222,172.955c2.655,7.776,11.125,11.908,18.894,9.223l120.284-41.509l-47.055-6.573l-70.666,24.395l-12.319-35.976l-14.822-2.069
	l4.101-29.243l-31.852-93.028l47.184-16.291l3.363-23.969L17.135,83.31z M290.34,213.897l20.895-7.206
	c7.776-2.686,11.924-11.162,9.261-18.939l-18.787-54.876L294.03,187.6l0.678,1.987l-1.005,0.342L290.34,213.897z M283.963,81.058
	l-22.689-66.26c-2.663-7.777-11.125-11.901-18.901-9.215L98.621,55.187l47.055,6.575l94.14-32.491l16.405,47.922L283.963,81.058z"/>
<path fill-rule="evenodd" clip-rule="evenodd" fill="#FEFFFF" d="M80.336,31.142C72.142,30.001,64.57,35.7,63.421,43.88
	L37.9,225.798c-1.149,8.18,4.565,15.736,12.761,16.878l237.403,33.144c8.195,1.142,15.767-4.557,16.916-12.736l25.521-181.919
	c1.148-8.18-4.566-15.735-12.761-16.877L80.336,31.142z M85.176,53.308L308.495,84.49L284.732,253.86l-223.32-31.174L85.176,53.308z
	"/>
<polygon fill-rule="evenodd" clip-rule="evenodd" fill="#FEFFFF" points="261.799,219.962 246.642,151.557 228.189,171.545 
	202.523,127.313 158.535,175.867 120.824,155.908 84.499,195.209 "/>
<path fill-rule="evenodd" clip-rule="evenodd" fill="#FEFFFF" d="M112.934,111.312c-0.015-11.627,9.359-21.054,20.94-21.062
	c11.581-0.007,20.986,9.413,21.001,21.039c0.016,11.627-9.352,21.055-20.94,21.062C122.354,132.358,112.957,122.938,112.934,111.312
	z"/>
</svg>
