<?xml version="1.0" encoding="utf-8"?>
<!-- Generator: Adobe Illustrator 15.0.0, SVG Export Plug-In . SVG Version: 6.00 Build 0)  -->
<!DOCTYPE svg PUBLIC "-//W3C//DTD SVG 1.1//EN" "http://www.w3.org/Graphics/SVG/1.1/DTD/svg11.dtd">
<svg version="1.1" id="Layer_1" xmlns="http://www.w3.org/2000/svg" xmlns:xlink="http://www.w3.org/1999/xlink" x="0px" y="0px"
	 width="420px" height="308px" viewBox="0 0 420 308" enable-background="new 0 0 420 308" xml:space="preserve">
<path fill="#FFFFFF" d="M28.071,287.613h3.113c2.283,0,3.424,1.044,3.424,3.104c0,0.989-0.294,1.758-0.847,2.301
	c-0.562,0.553-1.418,0.82-2.577,0.82h-3.113V287.613z M31.184,285.813h-5.208v16.944h2.096v-7.116h3.113
	c1.864,0,3.273-0.464,4.191-1.382c0.919-0.92,1.382-2.104,1.382-3.541c0-1.436-0.491-2.604-1.436-3.522
	C34.376,286.275,32.994,285.813,31.184,285.813z"/>
<rect x="39.977" y="284.921" fill="#FFFFFF" width="2.104" height="17.836"/>
<path fill="#FFFFFF" d="M51.187,302.757c1.079,0,2.024-0.249,2.836-0.784c0.803-0.509,1.436-1.195,1.846-2.033v2.817H58V289.38
	h-2.131v2.854c-0.411-0.83-1.043-1.534-1.846-2.062c-0.812-0.526-1.757-0.794-2.836-0.794c-1.748,0-3.202,0.615-4.343,1.828
	c-1.159,1.223-1.73,2.811-1.73,4.789c0,1.979,0.571,3.595,1.73,4.86C48.003,302.133,49.448,302.757,51.187,302.757z M51.579,300.956
	c-1.168,0-2.185-0.455-3.032-1.374c-0.856-0.918-1.275-2.132-1.275-3.611s0.419-2.632,1.258-3.494
	c0.838-0.867,1.855-1.295,3.041-1.295c1.177,0,2.194,0.445,3.032,1.338c0.838,0.892,1.267,2.067,1.267,3.549
	c0,1.48-0.428,2.656-1.267,3.55C53.764,300.511,52.748,300.956,51.579,300.956z"/>
<path fill="#FFFFFF" d="M64.68,300.625c-0.241-0.249-0.348-0.669-0.348-1.283v-8.16h3.282v-1.802h-3.282v-3.567h-2.131v3.567h-1.65
	v1.802h1.65v8.135c0,2.301,1.097,3.44,3.317,3.44h2.131v-1.766h-1.748C65.322,300.991,64.903,300.876,64.68,300.625z"/>
<path fill="#FFFFFF" d="M75.632,302.757c1.07,0,2.015-0.249,2.827-0.784c0.812-0.509,1.436-1.195,1.855-2.033v2.817h2.131V289.38
	h-2.131v2.854c-0.419-0.83-1.043-1.534-1.855-2.062c-0.812-0.526-1.757-0.794-2.827-0.794c-1.757,0-3.21,0.615-4.352,1.828
	c-1.15,1.223-1.721,2.811-1.721,4.789c0,1.979,0.571,3.595,1.721,4.86C72.439,302.133,73.884,302.757,75.632,302.757z
	 M76.024,300.956c-1.177,0-2.194-0.455-3.042-1.374c-0.847-0.918-1.266-2.132-1.266-3.611s0.419-2.632,1.248-3.494
	c0.838-0.867,1.855-1.295,3.042-1.295s2.203,0.445,3.041,1.338c0.829,0.892,1.267,2.067,1.267,3.549c0,1.48-0.438,2.656-1.267,3.55
	C78.209,300.511,77.192,300.956,76.024,300.956z"/>
<path fill="#FFFFFF" d="M88.759,288.488v-0.989c0-0.75,0.178-1.295,0.544-1.633c0.356-0.32,0.999-0.482,1.935-0.482v-1.801
	c-1.605,0-2.773,0.304-3.514,0.918c-0.75,0.616-1.115,1.606-1.115,2.952v1.035h-1.642v1.801h1.642v11.576h2.149v-11.576h2.658
	v-1.801H88.759z"/>
<path fill="#FFFFFF" d="M100.255,302.757c1.837,0,3.38-0.614,4.664-1.854c1.284-1.223,1.927-2.846,1.927-4.835
	c0-1.979-0.615-3.592-1.846-4.832c-1.222-1.231-2.738-1.855-4.584-1.855c-1.837,0-3.371,0.624-4.593,1.855
	c-1.231,1.24-1.829,2.853-1.829,4.851c0,2.007,0.571,3.604,1.739,4.834C96.911,302.143,98.409,302.757,100.255,302.757z
	 M97.312,299.681c-0.785-0.864-1.16-2.067-1.16-3.612c0-1.533,0.393-2.729,1.204-3.592c0.803-0.867,1.811-1.295,3.005-1.295
	c1.195,0,2.203,0.428,3.042,1.295c0.829,0.862,1.249,2.049,1.249,3.574c0,1.535-0.446,2.747-1.312,3.612
	c-0.874,0.865-1.908,1.294-3.085,1.294C99.051,300.956,98.079,300.545,97.312,299.681z"/>
<path fill="#FFFFFF" d="M109.726,289.38v13.377h2.104v-7.5c0-1.498,0.277-2.55,0.848-3.157c0.562-0.615,1.382-0.918,2.47-0.918
	h0.553v-1.802c-1.819,0-3.122,0.713-3.871,2.104v-2.104H109.726z"/>
<path fill="#FFFFFF" d="M119.269,289.38v13.377h2.104v-7.5c0-1.338,0.303-2.336,0.936-3.032c0.625-0.693,1.489-1.043,2.578-1.043
	c1.088,0,1.953,0.35,2.56,1.043c0.615,0.696,0.936,1.694,0.936,3.032v7.5h2.087v-7.5c0-1.338,0.312-2.336,0.937-3.032
	c0.615-0.693,1.463-1.043,2.551-1.043s1.935,0.35,2.56,1.043c0.633,0.696,0.954,1.694,0.954,3.032v7.5h2.087v-7.784
	c0-1.785-0.473-3.166-1.418-4.146c-0.954-0.954-2.132-1.444-3.567-1.444c-1.034,0-1.935,0.269-2.738,0.767
	c-0.794,0.5-1.418,1.213-1.873,2.104c-0.41-0.919-1.007-1.632-1.784-2.132c-0.802-0.491-1.676-0.74-2.649-0.74
	c-1.908,0-3.291,0.794-4.155,2.372v-2.372L119.269,289.38L119.269,289.38z"/>
<path fill="#FFFFFF" d="M149.216,302.757c1.07,0,2.016-0.249,2.828-0.784c0.811-0.509,1.436-1.195,1.854-2.033v2.817h2.131V289.38
	h-2.131v2.854c-0.419-0.83-1.043-1.534-1.854-2.062c-0.812-0.526-1.757-0.795-2.828-0.795c-1.757,0-3.21,0.614-4.352,1.828
	c-1.15,1.222-1.721,2.81-1.721,4.789c0,1.98,0.571,3.595,1.721,4.86C146.023,302.133,147.468,302.757,149.216,302.757z
	 M149.608,300.956c-1.177,0-2.194-0.455-3.041-1.374c-0.848-0.918-1.266-2.132-1.266-3.611s0.418-2.632,1.248-3.494
	c0.838-0.867,1.855-1.295,3.042-1.295c1.186,0,2.203,0.445,3.041,1.338c0.83,0.892,1.267,2.067,1.267,3.549
	c0,1.48-0.437,2.656-1.267,3.55C151.793,300.511,150.776,300.956,149.608,300.956z"/>
<rect x="167.525" y="285.813" fill="#FFFFFF" width="2.104" height="16.944"/>
<path fill="#FFFFFF" d="M173.5,289.38v13.377h2.105v-7.5c0-1.338,0.303-2.336,0.937-3.032c0.625-0.693,1.489-1.043,2.577-1.043
	c1.079,0,1.944,0.35,2.56,1.043c0.615,0.696,0.936,1.694,0.936,3.032v7.5h2.087v-7.784c0-1.785-0.473-3.166-1.418-4.146
	c-0.945-0.954-2.123-1.444-3.532-1.444c-1.909,0-3.282,0.796-4.147,2.372v-2.373L173.5,289.38L173.5,289.38z"/>
<path fill="#FFFFFF" d="M191.337,300.625c-0.241-0.249-0.348-0.669-0.348-1.283v-8.16h3.281v-1.802h-3.281v-3.567h-2.132v3.567
	h-1.65v1.802h1.65v8.135c0,2.301,1.097,3.44,3.317,3.44h2.132v-1.766h-1.748C191.979,300.991,191.56,300.876,191.337,300.625z"/>
<path fill="#FFFFFF" d="M206.382,294.73h-8c0.089-1.098,0.491-1.963,1.231-2.604c0.74-0.634,1.667-0.946,2.8-0.946
	c1.115,0,2.06,0.331,2.818,0.973C205.98,292.796,206.373,293.66,206.382,294.73z M206.078,301.616
	c0.973-0.769,1.668-1.74,2.078-2.926h-2.274c-0.276,0.679-0.722,1.223-1.311,1.642c-0.598,0.42-1.319,0.625-2.185,0.625
	c-1.159,0-2.105-0.385-2.827-1.178c-0.74-0.795-1.133-1.882-1.187-3.247h10.131c0.054-0.384,0.081-0.784,0.081-1.23
	c0-1.729-0.571-3.14-1.686-4.254c-1.115-1.114-2.604-1.668-4.441-1.668c-1.855,0-3.362,0.615-4.521,1.828
	c-1.15,1.222-1.722,2.837-1.722,4.843c0,2.025,0.571,3.64,1.712,4.87c1.143,1.222,2.622,1.837,4.46,1.837
	C203.857,302.757,205.089,302.383,206.078,301.616z"/>
<path fill="#FFFFFF" d="M217.575,300.956c-1.169,0-2.195-0.455-3.042-1.374c-0.848-0.918-1.266-2.132-1.266-3.611
	s0.418-2.632,1.256-3.494c0.832-0.867,1.848-1.295,3.033-1.295s2.202,0.445,3.039,1.338c0.84,0.892,1.268,2.067,1.268,3.549
	c0,1.48-0.428,2.656-1.268,3.55C219.759,300.511,218.742,300.956,217.575,300.956z M217.182,302.757c1.07,0,2.024-0.249,2.827-0.784
	c0.812-0.509,1.437-1.195,1.854-2.033v3.024c0,1.338-0.375,2.371-1.098,3.121c-0.738,0.739-1.658,1.115-2.746,1.115
	c-1.104,0-2.023-0.26-2.765-0.75c-0.75-0.519-1.223-1.16-1.419-1.909h-2.061c0.151,1.32,0.795,2.398,1.937,3.229
	c1.134,0.812,2.558,1.23,4.289,1.23c1.729,0,3.166-0.571,4.29-1.712c1.132-1.142,1.703-2.622,1.703-4.424V289.38h-2.133v2.854
	c-0.418-0.83-1.043-1.534-1.854-2.062c-0.803-0.526-1.757-0.795-2.828-0.795c-1.755,0-3.201,0.614-4.342,1.828
	c-1.16,1.222-1.73,2.81-1.73,4.789c0,1.98,0.57,3.595,1.73,4.86C213.988,302.133,215.441,302.757,217.182,302.757z"/>
<path fill="#FFFFFF" d="M227.73,289.38v13.377h2.105v-7.5c0-1.498,0.275-2.55,0.846-3.157c0.555-0.615,1.385-0.918,2.471-0.918
	h0.556v-1.802c-1.83,0-3.122,0.713-3.871,2.104v-2.104H227.73z"/>
<path fill="#FFFFFF" d="M242.509,302.757c1.08,0,2.026-0.249,2.837-0.784c0.803-0.509,1.438-1.195,1.846-2.033v2.817h2.133V289.38
	h-2.133v2.854c-0.408-0.83-1.043-1.534-1.846-2.062c-0.812-0.526-1.757-0.794-2.837-0.794c-1.747,0-3.2,0.615-4.342,1.828
	c-1.16,1.223-1.729,2.811-1.729,4.789c0,1.979,0.57,3.595,1.729,4.86C239.325,302.133,240.771,302.757,242.509,302.757z
	 M242.902,300.956c-1.168,0-2.187-0.455-3.032-1.374c-0.856-0.918-1.274-2.132-1.274-3.611s0.418-2.632,1.256-3.494
	c0.84-0.867,1.854-1.295,3.041-1.295c1.178,0,2.194,0.445,3.031,1.338c0.84,0.892,1.268,2.067,1.268,3.549
	c0,1.48-0.428,2.656-1.268,3.55C245.087,300.511,244.07,300.956,242.902,300.956z"/>
<path fill="#FFFFFF" d="M258.305,302.757c1.069,0,2.016-0.249,2.826-0.784c0.803-0.509,1.436-1.195,1.855-2.033v2.817h2.13v-17.836
	h-2.13v7.313c-0.42-0.83-1.053-1.534-1.855-2.062c-0.813-0.526-1.757-0.795-2.826-0.795c-1.758,0-3.212,0.614-4.354,1.828
	c-1.159,1.222-1.729,2.81-1.729,4.789c0,1.98,0.57,3.595,1.729,4.859C255.111,302.133,256.557,302.757,258.305,302.757z
	 M258.688,300.956c-1.17,0-2.186-0.455-3.033-1.374c-0.854-0.918-1.266-2.132-1.266-3.611s0.41-2.632,1.25-3.494
	c0.836-0.867,1.854-1.295,3.04-1.295s2.201,0.445,3.03,1.338c0.838,0.892,1.277,2.067,1.277,3.549c0,1.48-0.438,2.656-1.277,3.55
	C260.88,300.511,259.865,300.956,258.688,300.956z"/>
<path fill="#FFFFFF" d="M274.089,302.757c1.07,0,2.015-0.249,2.827-0.784c0.813-0.509,1.436-1.195,1.854-2.033v2.817h2.133V289.38
	h-2.133v2.854c-0.418-0.83-1.043-1.534-1.854-2.062c-0.813-0.526-1.757-0.795-2.827-0.795c-1.757,0-3.21,0.614-4.353,1.828
	c-1.15,1.222-1.723,2.81-1.723,4.789c0,1.98,0.571,3.595,1.723,4.86C270.896,302.133,272.341,302.757,274.089,302.757z
	 M274.48,300.956c-1.178,0-2.192-0.455-3.041-1.374c-0.848-0.918-1.267-2.132-1.267-3.611s0.419-2.632,1.248-3.494
	c0.838-0.867,1.854-1.295,3.04-1.295c1.188,0,2.205,0.445,3.042,1.338c0.83,0.892,1.267,2.067,1.267,3.549
	c0,1.48-0.437,2.656-1.267,3.55C276.667,300.511,275.648,300.956,274.48,300.956z"/>
<path fill="#FFFFFF" d="M297.633,302.757c1.079,0,2.024-0.249,2.827-0.784c0.812-0.509,1.437-1.195,1.854-2.033v2.817h2.131v-17.836
	h-2.131v7.313c-0.42-0.83-1.043-1.534-1.854-2.062c-0.803-0.526-1.748-0.795-2.827-0.795c-1.757,0-3.201,0.614-4.343,1.828
	c-1.159,1.222-1.729,2.81-1.729,4.789c0,1.98,0.57,3.595,1.729,4.859C294.439,302.133,295.895,302.757,297.633,302.757z
	 M298.025,300.956c-1.168,0-2.186-0.455-3.043-1.374c-0.846-0.918-1.266-2.132-1.266-3.611s0.42-2.632,1.258-3.494
	c0.838-0.867,1.854-1.295,3.032-1.295c1.187,0,2.202,0.445,3.041,1.338c0.837,0.892,1.267,2.067,1.267,3.549
	c0,1.48-0.429,2.656-1.267,3.55C300.21,300.511,299.193,300.956,298.025,300.956z"/>
<path fill="#FFFFFF" d="M317.521,294.73h-8c0.08-1.098,0.49-1.963,1.222-2.604c0.739-0.634,1.678-0.946,2.801-0.946
	c1.115,0,2.069,0.331,2.817,0.973C317.109,292.796,317.502,293.66,317.521,294.73z M317.208,301.616
	c0.981-0.769,1.679-1.74,2.078-2.926h-2.265c-0.285,0.679-0.731,1.223-1.313,1.642c-0.606,0.42-1.328,0.625-2.192,0.625
	c-1.151,0-2.104-0.385-2.828-1.178c-0.739-0.795-1.123-1.882-1.187-3.247h10.132c0.063-0.384,0.09-0.784,0.09-1.23
	c0-1.729-0.572-3.14-1.687-4.254c-1.115-1.114-2.614-1.668-4.45-1.668c-1.855,0-3.354,0.615-4.514,1.828
	c-1.16,1.222-1.729,2.837-1.729,4.843c0,2.025,0.571,3.64,1.712,4.87c1.143,1.222,2.622,1.837,4.461,1.837
	C314.997,302.757,316.219,302.383,317.208,301.616z"/>
<path fill="#FFFFFF" d="M332.939,287.613h3.112c2.283,0,3.425,1.044,3.425,3.104c0,0.989-0.295,1.758-0.848,2.301
	c-0.563,0.553-1.428,0.82-2.577,0.82h-3.112V287.613L332.939,287.613z M336.053,285.813h-5.217v16.944h2.104v-7.116h3.111
	c1.865,0,3.274-0.464,4.191-1.382c0.919-0.92,1.383-2.104,1.383-3.541c0-1.436-0.491-2.604-1.436-3.522
	C339.246,286.275,337.861,285.813,336.053,285.813z"/>
<path fill="#FFFFFF" d="M354.175,294.73h-7.991c0.08-1.098,0.482-1.963,1.223-2.604c0.74-0.634,1.677-0.946,2.8-0.946
	c1.114,0,2.062,0.331,2.817,0.973C353.771,292.796,354.165,293.66,354.175,294.73z M353.871,301.616
	c0.973-0.769,1.677-1.74,2.078-2.926h-2.274c-0.276,0.679-0.723,1.223-1.312,1.642c-0.598,0.42-1.319,0.625-2.186,0.625
	c-1.158,0-2.104-0.385-2.826-1.178c-0.74-0.795-1.134-1.882-1.187-3.247h10.131c0.054-0.384,0.08-0.784,0.08-1.23
	c0-1.729-0.569-3.14-1.687-4.254c-1.114-1.114-2.604-1.668-4.439-1.668c-1.855,0-3.361,0.615-4.514,1.828
	c-1.16,1.222-1.729,2.837-1.729,4.843c0,2.025,0.57,3.64,1.712,4.87c1.143,1.222,2.622,1.837,4.459,1.837
	C351.66,302.757,352.881,302.383,353.871,301.616z"/>
<path fill="#FFFFFF" d="M359.82,295.034c0.365,0.491,0.838,0.829,1.39,1.017c0.563,0.197,1.161,0.393,1.83,0.563
	c0.649,0.17,1.258,0.322,1.81,0.445c0.563,0.127,1.019,0.35,1.393,0.68c0.365,0.339,0.563,0.767,0.563,1.328
	c0,0.554-0.242,1-0.714,1.363c-0.471,0.365-1.114,0.527-1.935,0.527c-0.838,0-1.481-0.205-1.952-0.635
	c-0.474-0.419-0.724-0.988-0.751-1.722h-2.176c0.072,1.313,0.535,2.327,1.393,3.06c0.865,0.73,2.006,1.097,3.434,1.097
	c1.418,0,2.561-0.338,3.451-1.017c0.894-0.669,1.338-1.507,1.338-2.497c0-0.989-0.26-1.759-0.775-2.3
	c-0.518-0.526-1.141-0.901-1.873-1.098c-0.73-0.197-1.473-0.367-2.212-0.519c-0.74-0.134-1.363-0.374-1.88-0.714
	c-0.519-0.313-0.766-0.775-0.766-1.391c0-0.598,0.223-1.09,0.686-1.473c0.445-0.383,1.07-0.57,1.882-0.57
	c0.794,0,1.418,0.223,1.862,0.635c0.447,0.437,0.688,1.006,0.716,1.703h2.184c-0.079-1.285-0.524-2.285-1.338-3.024
	c-0.812-0.74-1.909-1.115-3.315-1.115c-1.42,0-2.562,0.375-3.453,1.115c-0.891,0.739-1.328,1.641-1.328,2.72
	C359.275,293.945,359.454,294.563,359.82,295.034z"/>
<path fill="#FFFFFF" d="M378.184,302.757c1.498,0,2.736-0.374,3.709-1.141c0.974-0.759,1.668-1.783,2.061-3.069h-2.264
	c-0.537,1.616-1.705,2.41-3.506,2.41c-1.213,0-2.187-0.412-2.908-1.268c-0.739-0.849-1.104-2.062-1.104-3.621
	c0-1.561,0.365-2.756,1.104-3.611c0.723-0.848,1.695-1.275,2.908-1.275c0.863,0,1.604,0.223,2.219,0.635
	c0.6,0.418,1.027,1.007,1.285,1.746h2.266c-0.393-1.338-1.07-2.373-2.033-3.094c-0.972-0.724-2.212-1.09-3.736-1.09
	c-1.838,0-3.317,0.614-4.459,1.839c-1.142,1.229-1.711,2.845-1.711,4.851c0,2.007,0.569,3.622,1.711,4.851
	C374.864,302.143,376.346,302.757,378.184,302.757z"/>
<path fill="#FFFFFF" d="M392.986,302.757c1.068,0,2.016-0.249,2.826-0.784c0.804-0.509,1.437-1.195,1.855-2.033v2.817h2.131V289.38
	h-2.131v2.854c-0.42-0.83-1.053-1.534-1.855-2.062c-0.812-0.526-1.758-0.795-2.826-0.795c-1.758,0-3.211,0.614-4.354,1.828
	c-1.158,1.222-1.729,2.81-1.729,4.789c0,1.98,0.57,3.595,1.729,4.86C389.794,302.133,391.238,302.757,392.986,302.757z
	 M393.37,300.956c-1.169,0-2.185-0.455-3.033-1.374c-0.854-0.918-1.267-2.132-1.267-3.611s0.412-2.632,1.25-3.494
	c0.837-0.867,1.854-1.295,3.041-1.295c1.186,0,2.201,0.445,3.031,1.338c0.838,0.892,1.275,2.067,1.275,3.549
	c0,1.48-0.438,2.656-1.275,3.55C395.563,300.511,394.547,300.956,393.37,300.956z"/>
<path fill="#4DB6AC" d="M214.561,134.5c5.113,4.149,10.469,3.14,10.469,3.14c4.632-0.976,4.763-20.27-2.867-35.02
	c-2.24-3.19-15.52,5.79-19.81,12.48C202.35,115.1,205.323,126.401,214.561,134.5z"/>
<path fill="#4DB6AC" d="M190.402,12.942c-5.72-8.61-12.432-15.158-17.882-10.269c0,0-13.19,13.006-9.301,34.586
	C174.167,21.168,190.402,12.942,190.402,12.942z M203.333,82.822c12.228,3.403,32.051-5.599,18.301-22.209
	C207.677,70.061,203.333,82.822,203.333,82.822z"/>
<path fill="#FFFFFF" d="M261.418,24.016C226.803-16.592,172.069,23,162.403,46.11c-25.333,57.89,47.781,88.121,47.58,87.51
	c-28.247-33.287-8.58-70.953,23.279-82.95c-12.809-5.08-12.029-15.34-12.029-15.34c3.25,8.12,10.668,12.546,15.568,14.237
	c20.201-7.133,23.688-20.814,23.688-20.814l-10.293-2.859L261.418,24.016z M228.773,21.68c0-2.55,2.09-4.63,4.658-4.63
	c2.58,0,4.658,2.08,4.658,4.63c0,2.56-2.078,4.63-4.658,4.63C230.863,26.31,228.773,24.24,228.773,21.68z M196.173,21.89l2.42,3.37
	c0,0-30.861,11.968-35.688,43.204C162.904,68.464,162.173,37.78,196.173,21.89z"/>
<path fill="#FFFFFF" d="M43.116,198.646h10.925c2.613,0,4.708,0.838,6.287,2.479c1.579,1.633,2.372,3.746,2.372,6.323
	c0,2.586-0.776,4.646-2.327,6.225c-1.543,1.579-3.657,2.362-6.332,2.362H43.116V198.646z M73.625,191.743
	c-4.682-4.308-11.201-6.483-19.584-6.483H25.494v72.273h17.623V229.43h10.925c5.012,0,9.355-0.729,13.039-2.22
	c3.674-1.472,6.438-3.371,8.293-5.707c3.487-4.521,5.253-9.229,5.253-14.117C80.626,201.286,78.29,196.068,73.625,191.743z"/>
<path fill="#FFFFFF" d="M124.272,223.555h-21.529c0.473-2.676,1.668-4.844,3.603-6.527c1.909-1.686,4.28-2.533,7.108-2.533
	c2.809,0,5.244,0.849,7.304,2.533C122.827,218.712,123.995,220.879,124.272,223.555z M130.862,252.949
	c4.958-3.514,8.25-8.178,9.908-13.949h-19.067c-0.839,1.034-1.508,1.773-2.024,2.221c-0.509,0.455-1.32,0.893-2.408,1.338
	c-1.097,0.455-2.765,0.659-5.003,0.659c-2.229,0-4.317-0.802-6.225-2.407c-1.935-1.613-3.068-3.691-3.407-6.242h39.579
	c0.268-1.692,0.41-3.549,0.41-5.549c0-9.267-2.8-16.498-8.356-21.724c-5.565-5.219-12.583-7.83-21.029-7.83
	c-8.446,0-15.339,2.657-20.663,7.938c-5.315,5.279-7.973,12.389-7.973,21.313c0,8.918,2.676,16.071,8.035,21.458
	c5.351,5.388,12.236,8.07,20.619,8.07C120.044,258.246,125.913,256.489,130.862,252.949z"/>
<path fill="#FFFFFF" d="M150.607,226.391c2.239,2.311,4.959,3.916,8.143,4.844c3.192,0.927,6.385,1.703,9.542,2.311
	c3.166,0.614,5.851,1.381,8.089,2.271c2.229,0.893,3.354,2.099,3.354,3.597c0,1.515-0.687,2.746-2.025,3.709
	c-1.329,0.963-3.032,1.437-5.083,1.437c-4.468,0-6.947-1.738-7.428-5.254h-18.033c0.41,6.262,2.942,10.979,7.625,14.163
	c4.682,3.192,10.515,4.778,17.516,4.778s12.807-1.686,17.426-5.081c4.602-3.399,6.911-7.771,6.911-13.13
	c0-3.219-0.82-5.948-2.435-8.178c-1.604-2.229-3.629-3.826-6.028-4.799c-4.682-1.986-9.854-3.461-15.554-4.433
	c-5.636-0.954-8.445-2.702-8.445-5.254c0-2.81,2.292-4.22,6.894-4.22c2.336,0,4.084,0.367,5.253,1.099
	c1.159,0.724,1.854,2.078,2.069,4.049h18.032c-0.276-5.823-2.685-10.407-7.215-13.778c-4.539-3.371-10.497-5.057-17.881-5.057
	s-13.243,1.713-17.578,5.146c-4.325,3.434-6.483,7.695-6.483,12.762C147.272,221.093,148.377,224.1,150.607,226.391z"/>
<path fill="#FFFFFF" d="M230.202,258.246c6.866,0,12.762-1.801,17.712-5.448c4.949-3.639,8.214-8.544,9.802-14.715h-19.067
	c-0.973,1.926-2.069,3.254-3.299,4.022c-1.248,0.758-2.961,1.115-5.146,1.115c-3.514,0-6.171-1.32-7.99-3.962
	c-1.828-2.64-2.738-6.116-2.738-10.442c0-4.324,0.912-7.813,2.738-10.451c1.819-2.641,4.602-3.959,8.338-3.959
	c3.737,0,6.44,1.712,8.098,5.146h19.068c-1.587-6.457-4.814-11.416-9.695-14.877c-4.877-3.459-10.816-5.208-17.816-5.208
	c-8.462,0-15.365,2.677-20.682,7.981c-5.314,5.314-7.973,12.432-7.973,21.359c0,8.918,2.658,16.07,7.973,21.412
	C214.837,255.579,221.738,258.246,230.202,258.246z"/>
<path fill="#FFFFFF" d="M286.957,258.246c7.135,0,12.852-3.014,17.107-9.061v8.348h17.621v-57.442h-17.621v7.509
	c-3.926-5.412-9.526-8.134-16.849-8.134c-7.331,0-13.528,2.765-18.603,8.286c-5.084,5.527-7.627,12.583-7.627,21.163
	c0,8.588,2.543,15.614,7.627,21.108C273.688,255.518,279.814,258.246,286.957,258.246z M291.479,243.014
	c-3.291,0-6.215-1.221-8.75-3.646c-2.549-2.426-3.814-5.922-3.814-10.451c0-4.531,1.266-8.036,3.814-10.506
	c2.535-2.462,5.459-3.702,8.75-3.702c3.301,0,6.217,1.231,8.768,3.658c2.541,2.442,3.816,5.929,3.816,10.452
	c0,4.529-1.275,8.035-3.816,10.488C297.695,241.783,294.779,243.014,291.479,243.014z"/>
<polygon fill="#FFFFFF" points="378.559,218.186 378.559,197.156 358.93,197.156 358.93,218.186 338.236,218.186 338.236,236.495 
	358.93,236.495 358.93,257.408 378.559,257.408 378.559,236.495 399.266,236.495 399.266,218.186 "/>
<path fill="#722454" d="M219.375,57"/>
<path fill="#722454" d="M187.291,7.993"/>
</svg>
